<?xml version="1.0" encoding="UTF-8"?>
<svg class="svg-content" style="position:absolute" preserveAspectRatio="xMinYMin meet" version="1.1" viewBox="-320 -320 640 640" xmlns="http://www.w3.org/2000/svg">
 <g>
  <rect x="-272" y="-272" width="544" height="544" rx="45" ry="45" fill="#111"/>
 </g>
 <g fill="#444">
  <circle cx="-224.4" cy="-224.4" r="15.3"/>
  <circle cx="224.4" cy="-224.4" r="15.3"/>
  <circle cx="-224.4" cy="224.4" r="15.3"/>
  <circle cx="224.4" cy="224.4" r="15.3"/>
 </g>
 <g>
  <circle r="255" fill="#666"/>
  <circle transform="rotate(-31.6)" r="239.7" fill="#fff"/>
  <circle r="208.2" fill="#eee"/>
  <circle r="205.7" fill="#fff"/>
 </g>
 <g fill="none"></g>
 <g>
  <g fill="#333">
   <path d="m-188.6 101.5 0.8112 1.494-17.93 9.734-0.8112-1.494zm-5.306-10.55 0.7276 1.536-18.44 8.731-0.7276-1.536zm-4.716-10.83 0.6418 1.574-18.89 7.701-0.6418-1.574zm-4.112-11.07 0.554 1.607-19.29 6.648-0.554-1.607zm-3.495-11.28 0.4646 1.635-19.62 5.575-0.4646-1.635zm-2.868-11.46 0.3737 1.658-19.9 4.485-0.3737-1.658zm-2.232-11.6 0.2818 1.676-20.12 3.381-0.2818-1.676zm-1.589-11.7 0.1889 1.689-20.27 2.267-0.1889-1.689zm-0.9417-11.77 0.0955 1.697-20.37 1.146-0.0955-1.697zm-0.2912-11.81 2e-3 1.7-20.4 0.02136-2e-3 -1.7zm0.3602-11.81-0.0919 1.698-20.37-1.103 0.0919-1.698zm1.01-11.77-0.1854 1.69-20.28-2.224 0.1854-1.69zm1.658-11.7-0.2782 1.677-20.12-3.339 0.2782-1.677zm2.3-11.59-0.3703 1.659-19.91-4.443 0.3703-1.659zm2.935-11.44-0.4612 1.636-19.64-5.534 0.4612-1.636zm3.561-11.26-0.5507 1.608-19.3-6.608 0.5507-1.608zm4.177-11.05-0.6385 1.576-18.91-7.662 0.6385-1.576zm4.779-10.8-0.7244 1.538-18.46-8.692 0.7244-1.538zm5.368-10.52-0.808 1.496-17.95-9.696 0.808-1.496zm5.94-10.21-0.8893 1.449-17.39-10.67 0.8892-1.449zm6.493-9.867-0.9678 1.398-16.77-11.61 0.9678-1.398zm7.027-9.494-1.043 1.342-16.11-12.52 1.043-1.342zm7.54-9.093-1.116 1.283-15.39-13.39 1.116-1.283zm8.03-8.663-1.185 1.219-14.63-14.22 1.185-1.219zm8.495-8.207-1.25 1.152-13.82-15 1.25-1.152zm8.935-7.727-1.312 1.081-12.98-15.74 1.312-1.081zm9.347-7.222-1.369 1.007-12.09-16.43 1.369-1.007zm9.731-6.696-1.423 0.9304-11.16-17.07 1.423-0.9304zm10.09-6.149-1.472 0.8505-10.21-17.66 1.472-0.8505zm10.41-5.584-1.517 0.7681-9.217-18.2 1.517-0.7681zm10.7-5.002-1.557 0.6833-8.2-18.68 1.557-0.6833zm10.96-4.404-1.592 0.5965-7.158-19.1 1.592-0.5965zm11.19-3.794-1.622 0.5078-6.094-19.47 1.622-0.5078zm11.38-3.171-1.648 0.4176-5.011-19.77 1.648-0.4176zm11.54-2.539-1.668 0.3261-3.913-20.02 1.668-0.3261zm11.66-1.899-1.684 0.2337-2.804-20.21 1.684-0.2337zm11.75-1.254-1.694 0.1405-1.686-20.33 1.694-0.1405zm11.8-0.6043-1.699 0.0468-0.5625-20.39 1.699-0.0469zm11.81 0.0468-1.699-0.0468 0.5625-20.39 1.699 0.0469zm11.79 0.6979-1.694-0.1405 1.686-20.33 1.694 0.1405zm11.74 1.347-1.684-0.2337 2.804-20.21 1.684 0.2336zm11.64 1.992-1.668-0.3261 3.913-20.02 1.668 0.3261zm11.52 2.631-1.648-0.4176 5.011-19.77 1.648 0.4176zm11.35 3.261-1.622-0.5078 6.094-19.47 1.622 0.5078zm11.16 3.882-1.592-0.5965 7.158-19.1 1.592 0.5965zm10.93 4.491-1.557-0.6833 8.2-18.68 1.557 0.6833zm10.66 5.087-1.517-0.7681 9.217-18.2 1.517 0.7681zm10.36 5.667-1.472-0.8505 10.21-17.66 1.472 0.8505zm10.04 6.229-1.423-0.9304 11.16-17.07 1.423 0.9304zm9.678 6.773-1.369-1.007 12.09-16.43 1.369 1.007zm9.289 7.296-1.312-1.081 12.98-15.74 1.312 1.081zm8.873 7.797-1.25-1.152 13.82-15 1.25 1.152zm8.43 8.274-1.185-1.219 14.63-14.22 1.185 1.219zm7.961 8.727-1.116-1.283 15.39-13.39 1.116 1.283zm7.468 9.152-1.043-1.342 16.11-12.52 1.043 1.342zm13.37 19.47-0.8893-1.449 17.39-10.67 0.8892 1.449zm5.858 10.26-0.808-1.496 17.95-9.696 0.808 1.496zm5.284 10.56-0.7244-1.538 18.46-8.692 0.7244 1.538zm4.694 10.84-0.6385-1.576 18.91-7.662 0.6385 1.576zm4.089 11.08-0.5507-1.608 19.3-6.608 0.5507 1.608zm3.472 11.29-0.4612-1.636 19.64-5.534 0.4612 1.636zm2.844 11.46-0.3703-1.659 19.91-4.443 0.3703 1.659zm2.208 11.6-0.2782-1.677 20.12-3.339 0.2782 1.677zm1.565 11.71-0.1854-1.69 20.28-2.224 0.1854 1.69zm0.917 11.78-0.0919-1.698 20.37-1.103 0.0919 1.698zm0.2665 11.81 2e-3 -1.7 20.4 0.02136-2e-3 1.7zm-0.3849 11.81 0.0955-1.697 20.37 1.146-0.0955 1.697zm-1.035 11.77 0.1889-1.689 20.27 2.267-0.1889 1.689zm-1.682 11.69 0.2818-1.676 20.12 3.381-0.2818 1.676zm-2.324 11.58 0.3737-1.658 19.9 4.485-0.3737 1.658zm-2.959 11.44 0.4646-1.635 19.62 5.575-0.4646 1.635zm-3.585 11.26 0.554-1.607 19.29 6.648-0.554 1.607zm-4.2 11.04 0.6418-1.574 18.89 7.701-0.6418 1.574zm-4.802 10.79 0.7276-1.536 18.44 8.731-0.7276 1.536zm-5.39 10.51 0.8112-1.494 17.93 9.734-0.8112 1.494z"/>
   <path d="m-209.6 44.19 1.308 5.804-19.9 4.485-1.308-5.804zm7.926-116.4-1.927 5.629-19.3-6.608 1.927-5.629zm67.74-94.98-4.591 3.785-12.98-15.74 4.591-3.785zm107.5-45.4-5.894 0.8178-2.804-20.21 5.894-0.8178zm115.3 17.64-5.448-2.392 8.2-18.68 5.448 2.392zm125.2 186.3-0.3218-5.941 20.37-1.103 0.3218 5.941zm-27.22 113.4 2.839-5.229 17.93 9.734-2.839 5.229z"/>
   <path d="m-189.7 99.59 2.839 5.229-22.41 12.17-2.839-5.229z"/>
   <path d="m-213.7-14.55-0.3218 5.941-25.46-1.379 0.3218-5.941z"/>
   <path d="m-174.4-124.4-3.387 4.892-20.96-14.52 3.387-4.892z"/>
   <path d="m-83.37-197.3-5.448 2.392-10.25-23.35 5.448-2.392z"/>
   <path d="m32.39-211.8-5.894-0.8178 3.505-25.26 5.894 0.8178z"/>
   <path d="m138.5-163.4-4.591-3.785 16.22-19.68 4.591 3.785z"/>
  </g>
  <path d="m203.6-66.57-1.927-5.629 24.13-8.26 1.927 5.629z" fill="#f00"/>
  <path d="m208.3 49.99 1.308-5.804 24.88 5.606-1.308 5.804z" fill="#333"/>
  <g fill="none"></g>
  <path d="m177.8-119.5-3.387-4.892 16.77-11.61 3.387 4.892z" fill="#333"/>
 </g>
 <g fill="#333">
  <path d="m-78.5-179.8c-0.6 0.0331-1.187 0.2954-1.62 0.7784-5.697 6.361-10.97 13.88-10.97 25.73 0 6.203 4.389 11.25 9.783 11.25 5.394 0 9.783-5.048 9.783-11.25 0-6.203-4.389-11.25-9.783-11.25-1.117 0-2.187 0.2274-3.188 0.626 1.701-4.392 4.45-8.151 7.873-11.97 0.865-0.9659 0.783-2.45-0.1834-3.316-0.4829-0.4325-1.096-0.6281-1.696-0.595zm19.9 0.0252c-2.91 0-5.669 1.939-6.865 4.824-1.412 3.406-2.048 10.34-2.048 14.18 0 3.837 0.6351 10.77 2.048 14.18 1.196 2.885 3.955 4.823 6.865 4.823 2.91 0 5.669-1.939 6.865-4.824 1.412-3.406 2.048-10.34 2.048-14.18 0-3.837-0.6351-10.77-2.048-14.18-1.196-2.885-3.955-4.824-6.865-4.824zm0 4.696c0.8381 0 2.009 0.6747 2.527 1.926 0.9963 2.402 1.69 8.453 1.69 12.38 0 3.929-0.6936 9.98-1.69 12.38-0.5182 1.252-1.689 1.926-2.527 1.926-0.838 0-2.009-0.6747-2.527-1.926-0.9963-2.402-1.69-8.453-1.69-12.38 0-3.929 0.6936-9.979 1.69-12.38 0.5182-1.252 1.689-1.927 2.527-1.927zm-22.71 15.23c2.805 0 5.087 2.94 5.087 6.554 0 3.614-2.282 6.555-5.087 6.555-2.804 0-5.087-2.941-5.087-6.555 0-3.614 2.283-6.554 5.087-6.554z"/>
  <path d="m137.7 68c-1.055 0-1.911 0.8547-1.911 1.909v27.1c0 1.055 0.8561 1.909 1.911 1.909 1.055 0 1.909-0.8548 1.909-1.909v-27.1c0-1.055-0.8548-1.909-1.909-1.909zm11.11 0c-1.055 0-1.911 0.8547-1.911 1.909v12.61c0 1.055 0.8561 1.911 1.911 1.911h3.765c2.281 0 4.136 2.392 4.136 5.331 0 2.94-1.855 5.331-4.136 5.331-1.417 0-2.771-0.9783-3.527-2.554-0.4565-0.951-1.596-1.352-2.547-0.8953-0.9507 0.4567-1.352 1.597-0.8953 2.548 1.398 2.911 4.069 4.72 6.969 4.72 4.388 0 7.955-4.104 7.955-9.15 0-5.046-3.568-9.152-7.955-9.152h-1.857v-8.794h6.749c1.055 0 1.909-0.8548 1.909-1.909s-0.8548-1.909-1.909-1.909zm22.37 0c-2.367 0-4.613 1.576-5.585 3.923-1.149 2.771-1.664 8.413-1.664 11.53 0 3.121 0.5148 8.764 1.664 11.54 0.9726 2.347 3.218 3.923 5.585 3.923s4.611-1.576 5.584-3.923c1.149-2.771 1.665-8.414 1.665-11.54 0-3.121-0.5162-8.763-1.665-11.53-0.9726-2.347-3.217-3.923-5.584-3.923zm0 3.819c0.6817 0 1.632 0.5499 2.054 1.568 0.8104 1.954 1.375 6.874 1.375 10.07 0 3.196-0.5643 8.119-1.375 10.07-0.4215 1.018-1.372 1.566-2.054 1.566s-1.635-0.5486-2.057-1.566c-0.8104-1.954-1.373-6.877-1.373-10.07 0-3.196 0.563-8.116 1.373-10.07 0.4215-1.018 1.375-1.568 2.057-1.568z"/>
  <path d="m8.225-195.5c-4.673 0-8.475 4.383-8.475 9.769 0 2.936 1.135 5.566 2.919 7.358-2.501 2.079-4.144 5.513-4.144 9.397 0 6.332 4.351 11.48 9.7 11.48 5.349 0 9.7-5.151 9.7-11.48 0-3.884-1.642-7.318-4.143-9.397 1.784-1.792 2.918-4.423 2.918-7.358 0-5.386-3.802-9.769-8.475-9.769zm22.2 0c-2.91 0-5.668 1.939-6.864 4.824-1.412 3.406-2.048 10.34-2.048 14.18s0.6351 10.77 2.048 14.18c1.196 2.885 3.954 4.823 6.864 4.823 2.91 0 5.669-1.938 6.865-4.823 1.412-3.406 2.048-10.34 2.048-14.18s-0.6351-10.77-2.048-14.18c-1.196-2.885-3.955-4.824-6.865-4.824zm-22.2 4.696c2.048 0 3.779 2.323 3.779 5.073 0 2.749-1.731 5.072-3.779 5.072-2.048 0-3.779-2.322-3.779-5.072 0-2.75 1.731-5.073 3.779-5.073zm22.2 0c0.8381 0 2.009 0.6758 2.528 1.927 0.9957 2.402 1.689 8.452 1.689 12.38s-0.693 9.98-1.689 12.38c-0.5188 1.252-1.69 1.926-2.528 1.926-0.838 0-2.008-0.6747-2.527-1.926-0.9957-2.402-1.689-8.453-1.689-12.38s0.693-9.979 1.689-12.38c0.5188-1.252 1.689-1.927 2.527-1.927zm-22.2 15.04c2.713 0 5.004 3.108 5.004 6.787s-2.292 6.787-5.004 6.787c-2.713 0-5.004-3.108-5.004-6.787s2.292-6.787 5.004-6.787z"/>
  <path d="m-134.8-116.2c-2.91 0-5.667 1.938-6.864 4.823-1.412 3.406-2.048 10.34-2.048 14.18 0 3.837 0.6351 10.77 2.048 14.18 1.196 2.885 3.954 4.824 6.864 4.824 2.91 0 5.669-1.939 6.865-4.824 1.412-3.406 2.048-10.34 2.048-14.18 0-3.837-0.6351-10.77-2.048-14.18-1.196-2.885-3.955-4.823-6.865-4.823zm-21.66 7e-3c-1.088-0.089-2.126 0.5947-2.443 1.684l-7.317 25.12c-9e-3 0.02966-9e-3 0.05967-0.0161 0.08942-0.019 0.07624-0.0322 0.1537-0.0436 0.2327-0.0122 0.08373-0.0222 0.1667-0.0252 0.2499-8.2e-4 0.02882-9e-3 0.05576-9e-3 0.08483 0 0.0414 0.0105 0.07965 0.0127 0.1204 5e-3 0.08905 0.0118 0.1766 0.0264 0.2637 0.0113 0.068 0.0266 0.1336 0.0435 0.1995 0.0204 0.07846 0.043 0.1549 0.0711 0.2305 0.0269 0.0725 0.058 0.142 0.0917 0.2109 0.0315 0.06468 0.0647 0.1276 0.102 0.1892 0.0405 0.06647 0.084 0.1295 0.1307 0.1915 0.045 0.05992 0.0915 0.1176 0.1422 0.1731 0.0495 0.05406 0.1016 0.1043 0.1559 0.1536 0.0581 0.05287 0.1175 0.1031 0.1812 0.1502 0.0603 0.04463 0.1224 0.08505 0.1869 0.1238 0.0637 0.03825 0.128 0.07421 0.196 0.1066 0.0758 0.03621 0.1539 0.06588 0.2339 0.09401 0.0401 0.01411 0.0756 0.03502 0.1169 0.047 0.029 0.0085 0.0581 0.0088 0.0871 0.01598 0.0798 0.02006 0.1613 0.03315 0.2442 0.04471 0.0772 0.01096 0.1537 0.02091 0.2305 0.02397 0.0322 8.24e-4 0.0626 0.0092 0.0951 0.0092h7.438v5.839c0 1.297 1.051 2.348 2.348 2.348s2.348-1.051 2.348-2.348v-5.839h2.307c1.297 0 2.348-1.051 2.348-2.348 0-1.297-1.051-2.348-2.348-2.348h-2.307v-10.12c0-1.297-1.051-2.348-2.348-2.348s-2.348 1.051-2.348 2.348v10.12h-4.31l6.442-22.12c0.3629-1.245-0.3531-2.548-1.598-2.911-0.1556-0.0453-0.3112-0.0733-0.4666-0.086zm21.66 4.689c0.8381 0 2.009 0.6747 2.528 1.926 0.9957 2.402 1.689 8.453 1.689 12.38 0 3.929-0.6936 9.979-1.689 12.38-0.5193 1.252-1.69 1.927-2.528 1.927-0.838 0-2.008-0.6758-2.527-1.927-0.9957-2.402-1.689-8.452-1.689-12.38 0-3.929 0.6936-9.98 1.689-12.38 0.5193-1.252 1.689-1.926 2.527-1.926z"/>
  <path d="m-181.6-24.2c-4.944 0-8.965 3.68-8.965 8.204 0 1.297 1.051 2.348 2.348 2.348 1.297 0 2.348-1.051 2.348-2.348 0-1.935 1.915-3.507 4.269-3.507 2.354 0 4.267 1.572 4.267 3.507 0 2.284-0.8071 3.439-1.743 4.776l-0.7142 1.057-0.5159 0.8255c-5.078 8.097-9.863 16.15-10.6 20.29-5e-3 0.02023-9e-3 0.04038-0.0127 0.06077-4e-3 0.02337-0.0112 0.05032-0.0149 0.07336-0.01 0.06018-6e-3 0.1191-0.0104 0.1789-6e-3 0.06418-0.0195 0.1259-0.0195 0.1914 0 0.01802 6e-3 0.03477 6e-3 0.05279 2e-3 0.08777 0.0149 0.1723 0.0263 0.258 9e-3 0.06775 0.0139 0.136 0.0286 0.2018 0.0178 0.07956 0.0452 0.1549 0.0711 0.2316 0.0238 0.07063 0.0445 0.1424 0.0745 0.2098 0.0292 0.06536 0.0671 0.1257 0.102 0.188 0.0384 0.06843 0.0744 0.1378 0.1192 0.2018 0.0424 0.0606 0.092 0.1145 0.1399 0.1708 0.0499 0.05856 0.0972 0.1186 0.1525 0.172 0.0521 0.05032 0.1107 0.09326 0.1674 0.1387 0.0604 0.04837 0.1184 0.09869 0.1834 0.141 0.0607 0.03944 0.1268 0.07038 0.1915 0.1043 0.0722 0.03791 0.1427 0.07735 0.219 0.1078 0.0612 0.02423 0.1265 0.03918 0.1903 0.05848 0.0859 0.02592 0.1705 0.05279 0.2602 0.06876 0.0162 0.0026 0.0306 0.0099 0.047 0.01267 0.0596 0.0096 0.1174 6e-3 0.1765 0.01037 0.0646 6e-3 0.1267 0.01947 0.1926 0.01947h13.94c1.297 0 2.348-1.051 2.348-2.348 0-1.297-1.051-2.348-2.348-2.348h-10.71c2.111-4.883 7.161-12.94 9.054-15.96l0.5205-0.8312 0.5778-0.8541c1.094-1.563 2.592-3.704 2.592-7.468-1e-4 -4.524-4.02-8.204-8.963-8.204zm22.37 8.24e-4c-2.91 0-5.668 1.938-6.864 4.823-1.412 3.407-2.049 10.34-2.049 14.18 0 3.837 0.6363 10.77 2.049 14.18 1.195 2.885 3.954 4.824 6.864 4.824s5.669-1.939 6.865-4.824c1.412-3.406 2.048-10.34 2.048-14.18 0-3.837-0.6351-10.77-2.048-14.18-1.196-2.885-3.955-4.823-6.865-4.823zm0 4.696c0.8375 0 2.009 0.6747 2.528 1.926 0.9951 2.401 1.689 8.453 1.689 12.38 0 3.929-0.6936 9.979-1.689 12.38-0.5194 1.251-1.69 1.927-2.528 1.927-0.8381 0-2.008-0.6753-2.527-1.926-0.9957-2.402-1.69-8.453-1.69-12.38 0-3.929 0.6947-9.98 1.69-12.38 0.5194-1.251 1.689-1.926 2.527-1.926z"/>
  <path d="m-160.2 64.99c-2.91 0-5.67 1.938-6.866 4.823-1.412 3.407-2.048 10.34-2.048 14.18 0 0.0051 8.3e-4 0.0091 8.3e-4 0.01377 8.2e-4 3.84 0.6367 10.76 2.048 14.17 1.196 2.885 3.954 4.824 6.865 4.824 2.91 0 5.668-1.939 6.864-4.824 1.412-3.406 2.049-10.34 2.049-14.18 0-3.837-0.6363-10.77-2.049-14.18-1.196-2.885-3.954-4.823-6.864-4.823zm0 4.696c0.8375 0 2.007 0.6747 2.526 1.926 0.9957 2.401 1.691 8.453 1.691 12.38 0 3.929-0.6953 9.979-1.691 12.38-0.5188 1.251-1.688 1.927-2.526 1.927-0.8381 0-2.01-0.6753-2.528-1.926-0.9963-2.402-1.689-8.453-1.689-12.38 0-0.0025-8.2e-4 -0.0059-8.2e-4 -0.0092 8.2e-4 -3.929 0.6949-9.973 1.69-12.37 0.5188-1.251 1.69-1.926 2.528-1.926z"/>
  <path d="m79.28-158c-1.297 0-2.348 1.051-2.348 2.348v33.31c0 1.297 1.051 2.348 2.348 2.348 1.297 0 2.348-1.051 2.348-2.348v-33.31c0-1.297-1.051-2.348-2.348-2.348zm18.86 0c-2.91 0-5.669 1.938-6.865 4.823-1.412 3.406-2.048 10.34-2.048 14.18 0 3.837 0.6351 10.77 2.048 14.18 1.196 2.885 3.955 4.824 6.865 4.824 2.91 0 5.669-1.939 6.865-4.824 1.412-3.406 2.048-10.34 2.048-14.18s-0.6351-10.77-2.048-14.18c-1.196-2.885-3.955-4.823-6.865-4.823zm22.46 0c-2.91 0-5.669 1.938-6.865 4.823-1.412 3.406-2.048 10.34-2.048 14.18 0 3.837 0.6351 10.77 2.048 14.18 1.196 2.885 3.955 4.824 6.865 4.824 2.91 0 5.67-1.939 6.866-4.824 1.412-3.406 2.048-10.34 2.048-14.18s-0.6351-10.77-2.048-14.18c-1.196-2.885-3.956-4.823-6.866-4.823zm-22.46 4.696c0.8381 0 2.008 0.6747 2.527 1.926 0.9957 2.402 1.69 8.453 1.69 12.38 0 3.929-0.6942 9.979-1.69 12.38-0.5188 1.252-1.689 1.927-2.527 1.927-0.838 0-2.008-0.6758-2.527-1.927-0.9957-2.402-1.69-8.452-1.69-12.38 0-3.929 0.6942-9.98 1.69-12.38 0.5188-1.252 1.689-1.926 2.527-1.926zm22.46 0c0.8381 0 2.008 0.6747 2.527 1.926 0.9957 2.402 1.691 8.453 1.691 12.38 0 3.929-0.6953 9.979-1.691 12.38-0.5188 1.252-1.689 1.927-2.527 1.927-0.8381 0-2.007-0.6758-2.526-1.927-0.9957-2.402-1.691-8.452-1.691-12.38 0-3.929 0.6953-9.98 1.691-12.38 0.5182-1.252 1.688-1.926 2.526-1.926z"/>
  <path d="m140.2-77.18c-1.297 0-2.348 1.051-2.348 2.348v33.31c0 1.297 1.051 2.348 2.348 2.348s2.348-1.051 2.348-2.348v-33.31c0-1.297-1.051-2.348-2.348-2.348zm18.39 0c-4.944 0-8.966 3.679-8.966 8.203 0 1.297 1.051 2.348 2.348 2.348 1.297 0 2.348-1.051 2.348-2.348 0-1.935 1.916-3.507 4.271-3.507 2.354 0 4.267 1.572 4.267 3.507 0 2.284-0.8071 3.439-1.743 4.776l-0.7131 1.057-0.517 0.8254c-5.078 8.097-9.863 16.15-10.6 20.29-5e-3 0.02021-9e-3 0.04042-0.0127 0.06077-4e-3 0.02333-0.0112 0.05033-0.0149 0.07337-0.01 0.06017-5e-3 0.1191-0.0104 0.1788-6e-3 0.06418-0.0195 0.1259-0.0195 0.1915 0 0.0181 6e-3 0.03475 6e-3 0.05276 2e-3 0.08775 0.0148 0.1723 0.0263 0.2579 9e-3 0.06773 0.0139 0.136 0.0286 0.2018 0.0179 0.07959 0.0452 0.1549 0.0712 0.2316 0.0238 0.07064 0.0444 0.1424 0.0745 0.2098 0.0292 0.06546 0.0671 0.1257 0.102 0.188 0.0384 0.06842 0.0744 0.1378 0.1192 0.2018 0.0424 0.06054 0.092 0.1145 0.1399 0.1708 0.05 0.05858 0.0972 0.1186 0.1525 0.172 0.0496 0.04791 0.1055 0.08832 0.1594 0.1318 0.0642 0.05195 0.1265 0.1052 0.196 0.1502 0.0521 0.03368 0.1089 0.0598 0.1639 0.08942 0.081 0.0437 0.1613 0.08737 0.2476 0.1215 0.0538 0.02117 0.1115 0.03428 0.1674 0.05162 0.0914 0.02841 0.1817 0.05735 0.2774 0.07452 0.0162 0.0027 0.0307 0.01 0.047 0.01261 0.0564 9e-3 0.1113 0.0043 0.1674 0.0092 0.0676 0.0058 0.1327 0.02064 0.2018 0.02064h13.94c1.297 0 2.348-1.051 2.348-2.348s-1.051-2.348-2.348-2.348h-10.71c2.111-4.883 7.16-12.94 9.054-15.96l0.5205-0.8323 0.5767-0.8518c1.094-1.563 2.593-3.704 2.593-7.469 0-4.524-4.02-8.203-8.963-8.203zm22.6 0c-2.91 0-5.668 1.939-6.864 4.823-1.412 3.407-2.048 10.34-2.048 14.18 0 3.837 0.6351 10.77 2.048 14.18 1.196 2.886 3.954 4.824 6.864 4.824 2.91 0 5.669-1.939 6.865-4.824 1.412-3.406 2.048-10.34 2.048-14.18 0-3.837-0.6351-10.77-2.048-14.18-1.196-2.884-3.955-4.823-6.865-4.823zm0 4.696c0.8381 0 2.009 0.6753 2.528 1.926 0.9957 2.402 1.689 8.453 1.689 12.38 0 3.929-0.693 9.98-1.689 12.38-0.5182 1.252-1.69 1.927-2.528 1.927-0.838 0-2.009-0.6753-2.527-1.926-0.9957-2.402-1.689-8.453-1.689-12.38 0-3.929 0.693-9.98 1.689-12.38 0.5188-1.251 1.689-1.926 2.527-1.926z"/>
  <path d="m142.3 14.52c-1.297 0-2.348 1.051-2.348 2.348v33.31c0 1.297 1.051 2.348 2.348 2.348 1.297 0 2.348-1.051 2.348-2.348v-33.31c0-1.297-1.051-2.348-2.348-2.348zm41.15 0c-2.91 0-5.669 1.938-6.865 4.823-1.412 3.407-2.048 10.34-2.048 14.18 0 0.0048 8.3e-4 0.0091 8.3e-4 0.01374 8.2e-4 3.84 0.6367 10.76 2.048 14.17 1.195 2.884 3.954 4.823 6.864 4.824h0.00166c2.909-8.5e-4 5.667-1.939 6.863-4.824 1.412-3.406 2.049-10.34 2.049-14.18 0-3.837-0.6363-10.77-2.049-14.18-1.197-2.885-3.955-4.823-6.865-4.823zm-21.78 0.0068c-1.089-0.08874-2.126 0.5947-2.443 1.684l-7.318 25.12c-8e-3 0.02899-9e-3 0.05811-0.0161 0.08713-0.0197 0.0784-0.032 0.1583-0.0436 0.2396-0.0116 0.08147-0.0211 0.1621-0.024 0.243-8.3e-4 0.02959-9e-3 0.05729-9e-3 0.08713 0 0.04241 0.0104 0.08197 0.0127 0.1238 5e-3 0.08507 0.0117 0.1689 0.0252 0.2522 0.0122 0.07543 0.0277 0.1484 0.0469 0.2213 0.019 0.07121 0.04 0.1409 0.0653 0.2098 0.0282 0.07689 0.0605 0.1507 0.0963 0.2236 0.0301 0.06128 0.0622 0.1204 0.0975 0.1788 0.0428 0.0706 0.089 0.1374 0.1387 0.2029 0.0417 0.05523 0.0852 0.1078 0.1318 0.1594 0.0532 0.05858 0.1086 0.1133 0.1674 0.1662 0.0544 0.04919 0.1103 0.09569 0.1697 0.1399 0.0638 0.04752 0.1297 0.09086 0.1984 0.1318 0.0604 0.03605 0.1214 0.07009 0.1857 0.1009 0.079 0.038 0.1606 0.06953 0.2442 0.09859 0.0384 0.01336 0.0728 0.03314 0.1124 0.04472 0.0286 0.0083 0.0573 0.0088 0.086 0.01601 0.0768 0.01924 0.1554 0.03211 0.235 0.04354 0.0839 0.01217 0.1666 0.0222 0.2499 0.02522 0.0288 0.0011 0.0558 0.0092 0.0848 0.0092h7.438v5.839c0 1.297 1.051 2.348 2.348 2.348 1.297 0 2.348-1.051 2.348-2.348v-5.839h2.307c1.297 0 2.348-1.051 2.348-2.348 0-1.297-1.051-2.348-2.348-2.348h-2.307v-10.12c0-1.297-1.051-2.348-2.348-2.348-1.297 0-2.348 1.051-2.348 2.348v10.12h-4.308l6.442-22.12c0.3623-1.245-0.3531-2.548-1.598-2.911-0.1556-0.04532-0.3122-0.0733-0.4678-0.08599zm21.78 4.689c0.8381 0 2.007 0.6747 2.527 1.926 0.9951 2.401 1.691 8.453 1.691 12.38 0 3.929-0.6959 9.979-1.691 12.38-0.518 1.251-1.688 1.927-2.526 1.927h-8.3e-4c-0.838-5.36e-4 -2.008-0.6758-2.526-1.926-0.9963-2.402-1.69-8.453-1.69-12.38 0-0.0027-8.3e-4 -0.0059-8.3e-4 -0.0092 8.3e-4 -3.929 0.6943-9.973 1.69-12.37 0.5182-1.251 1.689-1.926 2.527-1.926z"/>
  <path d="m27.02 113.4c-0.913 0.062-1.744 0.6575-2.06 1.578l-13.81 40.06c-0.423 1.226 0.2281 2.562 1.455 2.984 1.226 0.423 2.562-0.227 2.984-1.454l13.81-40.06c0.423-1.226-0.2281-2.562-1.455-2.984-0.3065-0.1058-0.6197-0.1445-0.924-0.1238zm-57.74 6.984c-1.297 0-2.348 1.051-2.348 2.348v33.07c0 1.297 1.051 2.348 2.348 2.348 1.297 0 2.348-1.051 2.348-2.348v-6.238l2.27-1.932 5.505 9.36c0.6569 1.117 2.096 1.49 3.213 0.8335 1.118-0.6575 1.492-2.097 0.8335-3.215l-5.923-10.07 5.921-5.042c0.9877-0.8409 1.106-2.323 0.2648-3.31-0.8404-0.9877-2.323-1.106-3.31-0.266l-8.776 7.473v-20.66c0-1.297-1.051-2.348-2.348-2.348zm62.23 0c-1.297 0-2.348 1.051-2.348 2.348v33.07c0 1.297 1.051 2.348 2.348 2.348s2.348-1.051 2.348-2.348v-9.832c0-2.864 1.747-5.283 3.815-5.283 2.068 0 3.815 2.419 3.815 5.283v9.832c0 1.297 1.051 2.348 2.348 2.348 1.297 0 2.348-1.051 2.348-2.348v-9.832c0-5.502-3.818-9.979-8.511-9.979-1.372 0-2.666 0.3914-3.815 1.071v-14.33c0-1.297-1.051-2.348-2.348-2.348zm-42.93 15.64c-1.297 0-2.348 1.051-2.348 2.348v17.42c0 1.297 1.051 2.348 2.348 2.348 1.297 0 2.348-1.051 2.348-2.348v-12.8c0-1.442 0.4483-2.875 1.911-3.161 1.688-0.3302 2.56 1.022 2.56 2.798v13.16c0 1.297 1.051 2.348 2.348 2.348 1.297 0 2.348-1.051 2.348-2.348v-11.5c0-0.4031-0.00765-0.7869-0.02176-1.154l0.00595 0.0196c0-1.442 0.4483-3.041 1.911-3.327 1.688-0.3302 2.56 1.022 2.56 2.798v13.16c0 1.297 1.051 2.348 2.348 2.348 1.297 0 2.348-1.051 2.348-2.348v-11.5c0-6.617-1.936-8.351-5.715-8.094-1.8 0.1223-3.173 1.203-4.319 2.417-0.9126-1.981-2.527-2.573-4.832-2.417-1.4 0.0951-2.539 0.7742-3.516 1.641-0.2395-1.043-1.169-1.822-2.284-1.822z"/>
 </g>
 <g fill="none">
  <path d="m-218.1 118.4a248.2 248.2 0 1 1 0.0207 0.0381z" stroke="#333" stroke-width="10px"/>
 </g>
</svg>
