<?xml version="1.0" encoding="UTF-8"?>
<svg class="svg-content" enable-background="new" style="position:absolute" preserveAspectRatio="xMinYMin meet" version="1.1" viewBox="-100 -100 1200 1400" xml:space="preserve" 
    xmlns="http://www.w3.org/2000/svg">
    <g fill="#f00" transform="translate(0,0)">
        <polygon class="g" transform="matrix(.98252461 0 0 .98252461 -.292368 -.291231)" points="634.54639 515.98047 607.05811 515.98047 592.9585 508.09961 609.8374 500.21875 637.32568 500.21875 651.42529 508.09961" stroke-width="1.01778626" style="position:absolute"/>
        <g>
            <path class="f" d="m596.31356 487.04385 5.87404-33.30988-15.84609-10.21289c-0.6918 1.46899-1.20704 3.01954-1.4901 4.62861l-8.05881 45.70371h4.93853z" style="position:absolute"/>
            <path class="c" d="m625.14452 564.528-5.63033-18.41082 6.22521-35.30275 14.58243-6.80956h4.93949l-8.05881 45.70372c-1.15715 6.56391-6.02276 12.20767-12.05799 14.81941z" style="position:absolute"/>
            <path class="b" d="m648.27798 433.33027-12.12228 18.41083-6.22521 35.30275 12.18177 6.80955h4.93948l8.05882-45.70371c1.15715-6.56391-1.71846-12.20767-6.83258-14.81942z" style="position:absolute"/>
        </g>
        <g class="a" transform="matrix(.98252461 0 0 .98252461 -.292368 -.291231)" stroke-width="1.01778626">
        </g>
    </g>
</svg>
