<?xml version="1.0" encoding="UTF-8"?>
<svg class="svg-content" style="position:absolute" preserveAspectRatio="xMinYMin meet" version="1.1" viewBox="-320 -320 640 640" xmlns="http://www.w3.org/2000/svg">
 <g transform="scale(.85)">
  <rect x="-320" y="-320" width="640" height="640" rx="0" ry="0" fill="#333"/>
  <g fill="#444">
   <circle cx="-264" cy="-264" r="18" display="none"/>
   <circle cx="264" cy="-264" r="18" display="none"/>
   <circle cx="-264" cy="264" r="18" display="none"/>
   <circle cx="264" cy="264" r="18" display="none"/>
  </g>
  <circle r="290" fill="#555"/>
  <circle r="286" fill="#444"/>
  <circle r="282" fill="#303030"/>
  <circle r="245" fill="#222"/>
  <path d="m-197.461879-150.083498-4.1567413 5.63218446-27.3563245-20.1898863 4.1567413-5.63218446z" fill="#d00"/>
  <path d="m3.5-248h-7l-6.3e-15 -34h7z" fill="#d00"/>
  <g fill="#eee">
   <path d="m-203.72328 141.4278 1.14715 1.63831-13.92558 9.7508-1.14716-1.63831zm-8.41429-12.96516 1.04287 1.70658-14.50595 8.8644-1.04287-1.70658zm-7.59032-13.46414 0.93454 1.76824-15.02996 7.94356-0.93454-1.76823zm-6.73685-13.9108 0.82258 1.82301-15.4956 6.99188-0.82258-1.82301zm-5.85722-14.303455 0.70741 1.870712-15.90105 6.013037-0.70741-1.870712zm-4.95485-14.640535 0.58951 1.911146-16.24474 5.010838-0.58951-1.911146zm-4.03322-14.920753 0.46931 1.944156-16.52533 3.989176-0.46931-1.944156zm-3.09594-15.143017 0.3473 1.969616-16.74174 2.952019-0.34729-1.969616zm-2.14662-15.306462 0.22393 1.987424-16.89311 1.903396-0.22393-1.987424zm-1.18897-15.410455 0.0997 1.997514-16.97887 0.84738-0.0997-1.997514zm-0.2267-15.4545913-0.0249 1.9998446-16.99868-0.2119274 0.0249-1.9998445zm0.73645-15.4386987-0.14946 1.994408-16.95247-1.270412 0.14946-1.994408zm1.69674-15.36284-0.27341 1.981224-16.8404-2.323961 0.27341-1.981224zm2.65044-15.227309-0.39629 1.960345-16.66294-3.368484 0.3963-1.960345zm3.59384-15.032633-0.51763 1.931852-16.42074-4.399924 0.51764-1.931852zm4.5233-14.779567-0.63698 1.895854-16.11476-5.414273 0.63697-1.895855zm5.43516-14.469096-0.75383 1.852494-15.7462-6.407593 0.75383-1.852489zm6.32593-14.102428-0.86776 1.80194-15.31647-7.37602 0.86776-1.80194zm7.19213-13.68097-0.97833 1.74438-14.82725-8.3158 0.97833-1.74439zm8.03039-13.20639-1.08509 1.68005-14.28045-9.22328 1.0851-1.68006zm18.44765-24.78587-1.28558 1.53209-13.02275-10.92739 1.28557-1.53209zm10.3456-11.48321-1.37851 1.44903-12.31677-11.71739 1.37852-1.44904zm11.04084-10.81646-1.4661 1.36035-11.56294-12.46188 1.46611-1.36035zm11.69319-10.10768-1.548 1.26638-10.76419-13.15797 1.54799-1.26638zm12.30011-9.35965-1.62388 1.16749-9.92364-13.80295 1.62388-1.16749zm12.85926-8.57526-1.69345 1.06406-9.04454-14.39431 1.69344-1.06406zm13.36847-7.75757-1.75645 0.9565-8.13032-14.92976 1.75645-0.95651zm13.82574-6.90975-1.81262 0.84524-7.18451-15.40724 1.81262-0.84523zm14.22932-6.03508-1.861747 0.73068-6.210798-15.82485 1.861748-0.73068zm14.577629-5.13698-1.903648 0.61329-5.212961-16.18101 1.903648-0.61329zm14.869314-4.21891-1.938154 0.49351-4.194876-16.47431 1.938154-0.49352zm15.103245-3.28448-1.965133 0.37183-3.160497-16.70363 1.965133-0.37183zm15.278513-2.33727-1.984478 0.24869-2.113843-16.86807 1.984478-0.24868zm15.394436-1.38099-1.996116 0.12459-1.058978-16.96698 1.996115-0.12459zm30.897243 0.12459-1.996115-0.12459 1.058978-16.96698 1.996115 0.12459zm15.382798 1.50509-1.984478-0.24869 2.113843-16.86806 1.984478 0.24868zm15.259168 2.46041-1.965133-0.37183 3.160497-16.70363 1.965133 0.37183zm15.076266 3.40616-1.938154-0.49351 4.194876-16.47432 1.938154 0.49352zm14.834808 4.33869-1.903648-0.61329 5.212961-16.18101 1.903648 0.61329zm14.535728 5.25437-1.861747-0.73068 6.210797-15.82485 1.861748 0.73068zm14.180192 6.14964-1.81262-0.84524 7.18451-15.40723 1.81262 0.84523zm13.76957 7.02101-1.75644-0.9565 8.13031-14.92977 1.75645 0.95651zm13.30547 7.86513-1.69345-1.06406 9.04455-14.39431 1.69345 1.06406zm12.78969 8.67869-1.62388-1.16749 9.92365-13.80295 1.62387 1.16749zm12.22423 9.45854-1.548-1.26638 10.7642-13.15797 1.54799 1.26638zm11.61129 10.20165-1.4661-1.36035 11.56293-12.46188 1.46611 1.36035zm10.95325 10.90514-1.37851-1.44903 12.31676-11.7174 1.37852 1.44904zm10.25267 11.56627-1.28558-1.53209 13.02276-10.92739 1.28558 1.53209zm9.51226 12.18247-1.18764-1.60919 13.67816-10.09495 1.18764 1.6092zm8.73491 12.75136-1.0851-1.68005 14.28044-9.22329 1.0851 1.68006zm7.92362 13.27072-0.97833-1.74438 14.82725-8.31581 0.97833 1.74439zm7.08156 13.73853-0.86776-1.80194 15.31647-7.37602 0.86776 1.80194zm6.212 14.152982-0.75383-1.852494 15.7462-6.407588 0.75383 1.852489zm5.31831 14.512456-0.63697-1.895854 16.11476-5.414274 0.63697 1.895855zm4.40395 14.815565-0.51763-1.931852 16.42074-4.399924 0.51763 1.931852zm3.4725 15.061126-0.39629-1.960345 16.66293-3.368484 0.3963 1.960345zm2.52756 15.248188-0.27341-1.981224 16.84041-2.323961 0.2734 1.981224zm1.57279 15.376024-0.14946-1.994408 16.95247-1.270411 0.14946 1.994407zm0.61193 15.4441355-0.0249-1.9998445 16.99868-0.2119274 0.0249 1.9998446zm-0.35133 15.4522605 0.0997-1.997514 16.97887 0.84738-0.0997 1.997514zm-1.31321 15.400366 0.22393-1.987425 16.89311 1.903396-0.22393 1.987425zm-2.26998 15.288653 0.34729-1.969615 16.74173 2.952019-0.34729 1.969615zm-3.21796 15.117558 0.46932-1.944157 16.52532 3.989176-0.46931 1.944156zm-4.15342 14.887742 0.58951-1.911145 16.24474 5.010838-0.58951 1.911145zm-5.07275 14.600101 0.70741-1.870711 15.90105 6.013037-0.70741 1.870712zm-5.97239 14.255753 0.82258-1.82301 15.4956 6.99188-0.82258 1.82301zm-6.84881 13.85603 0.93454-1.76824 15.02996 7.94357-0.93454 1.76823zm-7.69865 13.40248 1.04287-1.70658 14.50595 8.8644-1.04287 1.70658zm-8.51857 12.89689 1.14715-1.63831 13.92559 9.7508-1.14715 1.63831z"/>
   <path d="m-237.71894 70.710351 1.47377 4.777864-32.48947 10.021676-1.47378-4.777864zm3.42917-152.064859-1.59243 4.739637-32.22953-10.828546 1.59244-4.739637zm91.55118-121.465472-4.05969 2.91871-19.84728-27.60589 4.05969-2.91872zm289.53687 2.91871-4.05969-2.91871 19.84728-27.6059 4.05969 2.91872zm89.08392 123.286399-1.59243-4.739637 32.22952-10.828546 1.59244 4.739637zm0.36297 152.103086 1.47377-4.777864 32.48948 10.021676-1.47378 4.777864z"/>
   <path d="m-205.15722 139.37992 4.01503 5.73407-27.85117 19.5016-4.01503-5.73407zm-42.77988-145.971294-0.0873 6.999456-33.99736-0.42385469 0.0873-6.99945601zm175.220588-230.534246-6.662768 2.14651-10.425921-32.36201 6.662768-2.14652zm152.095792 2.14651-6.662768-2.14651 10.425921-32.36202 6.662768 2.14652zm122.23934 90.5278-4.15674-5.63219 27.35632-20.18988 4.15674 5.63218zm46.40574 144.859392-0.0873-6.999456 33.99735-0.4238547 0.0873 6.99945601zm-46.88217 144.705908 4.01503-5.73407 27.85117 19.5016-4.01503 5.73407z"/>
  </g>
  <path d="m-245.955743 31.9690846 1.00012999 6.92818447-33.6511817 4.85777424-1.00012999-6.92818447z" fill="#d00"/>
  <path d="m0 0z" display="none" fill="#fff"/>
  <g fill="none">
   <circle display="none"/>
   <circle display="none"/>
  </g>
 </g>
 <circle cx="-2.3077546e-6" cy="8.989914e-7" r="204.43379" fill="#272727"/>
 <g transform="matrix(.9106062 0 0 .9106062 -1.7112928 -265.26312)" fill="#eee" stroke="#eee">
  <g transform="matrix(1.3103348,0,0,1.4894064,-42.03723,915.33521)" stroke-width=".71581739">
   <g stroke-linecap="round" stroke-linejoin="round">
    <g stroke-width=".64423567">
     <rect x="-8.8198938" y="-326.80707" width="6.9490085" height="29.132383"/>
     <rect x="12.015369" y="-319.48376" width="6.9490089" height="21.809097"/>
     <rect x="58.317444" y="-326.54248" width="6.9490085" height="29.132383"/>
     <rect transform="rotate(19.7918)" x="-60.920883" y="-325.59976" width="4.9521646" height="30.490013"/>
    </g>
    <rect transform="matrix(1 0 .38127496 .92446168 0 0)" x="126.83652" y="-337.57108" width="6.9490051" height="15.573283" stroke-width=".67003936"/>
    <rect transform="matrix(-1 0 -.66559075 .74631693 0 0)" x="273.85129" y="-427.92072" width="6.9490051" height="19.290604" stroke-width=".74573261"/>
    <rect transform="matrix(1 0 .38127496 .92446168 0 0)" x="130.58368" y="-339.11212" width="3.2018361" height="7.1755743" stroke-width=".67003936"/>
   </g>
   <g stroke-width=".71581739">
    <path d="m23.392454-310.10534 6.94901-3.5152-1e-6 15.94586h-6.949009z" stroke-linecap="round" stroke-linejoin="round" stroke-width=".64423567"/>
    <path d="m23.392454-310.10534c0-5.07166-2.960846-3.79696-4.428076-2.52302-1.624721 1.55917-2.863747-0.75594 0-4.11048 3.078112-3.12234 5.050597-3.36527 7.388981-2.64009 2.215661 0.68711 3.988105 3.25742 3.988105 5.75839 0 2.59584-6.94901 3.5152-6.94901 3.5152z" fill-rule="evenodd" stroke-width=".18939334px"/>
    <g transform="translate(11.377082)">
     <path d="m23.392454-310.10534 6.94901-3.5152-1e-6 15.94586h-6.949009z" stroke-linecap="round" stroke-linejoin="round" stroke-width=".64423567"/>
     <path d="m23.392454-310.10534c0-5.07166-2.960846-3.79696-4.428076-2.52302-1.624721 1.55917-2.863747-0.75594 0-4.11048 3.078112-3.12234 5.050597-3.36527 7.388981-2.64009 2.215661 0.68711 3.988105 3.25742 3.988105 5.75839 0 2.59584-6.94901 3.5152-6.94901 3.5152z" fill-rule="evenodd" stroke-width=".18939334px"/>
    </g>
    <g transform="translate(46.925737 .26458333)">
     <path d="m23.392454-310.10534 6.94901-3.5152-1e-6 15.94586h-6.949009z" stroke-linecap="round" stroke-linejoin="round" stroke-width=".64423567"/>
     <path d="m23.392454-310.10534c0-4.23644-4.060337-3.59581-5.051739-0.3885-1.624721 1.55917-2.863747-2.18175 0-5.53629 2.195575-2.98884 5.67426-4.07398 8.012644-3.3488 2.215661 0.68711 3.988105 3.25742 3.988105 5.75839 0 2.59584-6.94901 3.5152-6.94901 3.5152z" fill-rule="evenodd" stroke-width=".18939334px"/>
    </g>
   </g>
  </g>
  <g stroke-width="2">
   <path d="m-69.002167 95.705427c-0.589785 0.0325-1.167035 0.29036-1.592486 0.76526-5.600203 6.253333-10.78228 13.644943-10.78228 25.293903 0 6.09835 4.314263 11.06066 9.616933 11.06066 5.302666 0 9.616926-4.96231 9.616926-11.06066s-4.31426-11.05952-9.616926-11.05952c-1.098427 0-2.15023 0.22356-3.134264 0.61536 1.672465-4.31787 4.374244-8.01324 7.7393-11.770696 0.850342-0.949527 0.769758-2.408747-0.180323-3.259367-0.474763-0.42518-1.077087-0.61744-1.66688-0.58494zm19.564081 0.0248c-2.860962 0-5.573151 1.9061-6.748642 4.742563-1.388499 3.34868-2.01287 10.16692-2.01287 13.93908s0.624371 10.59125 2.01287 13.94021c1.175491 2.83616 3.88768 4.74141 6.748642 4.74141 2.860963 0 5.573151-1.90609 6.748643-4.74254 1.388497-3.34868 2.01287-10.16692 2.012875-13.93908 0-3.77216-0.624378-10.59012-2.012875-13.93908-1.175492-2.836183-3.88768-4.742563-6.748643-4.742563zm0 4.616333c0.823861 0 1.974557 0.66326 2.483971 1.8934 0.979384 2.36113 1.661242 8.30986 1.661242 12.17191 0 3.86204-0.681858 9.81106-1.661242 12.1719-0.509414 1.23043-1.66011 1.89341-2.483971 1.89341-0.823855 0-1.974551-0.66326-2.48397-1.89341-0.979384-2.36112-1.661237-8.30986-1.661237-12.1719 0-3.86205 0.681853-9.80994 1.661237-12.17078 0.509419-1.23043 1.660115-1.89453 2.48397-1.89453zm-22.321914 14.97482c2.757275 0 5.000621 2.89026 5.000621 6.44322 0 3.55295-2.243346 6.44434-5.000621 6.44434-2.756713 0-5.000625-2.89139-5.000625-6.44434 0-3.55296 2.243912-6.44322 5.000625-6.44322z"/>
   <path d="m41.497789 92.499846c-4.593767 0-8.330992 4.30835-8.330992 9.603404 0 2.88581 1.115635 5.47147 2.869411 7.23327-2.459118 2.04371-4.074204 5.41927-4.074204 9.23825 0 6.22429 4.277632 11.28831 9.535785 11.28831 5.258146 0 9.535783-5.06402 9.535783-11.28831 0-3.81865-1.614323-7.19448-4.073077-9.23825 1.753545-1.76179 2.868283-4.34768 2.868283-7.23327 0-5.295054-3.737222-9.603404-8.330989-9.603404zm21.828274 0c-2.860963 0-5.572026 1.9061-6.747518 4.74254-1.388497 3.348684-2.01287 10.166914-2.01287 13.939074 0 3.77217 0.624373 10.59126 2.01287 13.94022 1.175492 2.83616 3.886555 4.7414 6.747518 4.7414 2.860962 0 5.572597-1.90495 6.748647-4.7414 1.3885-3.34868 2.012871-10.16805 2.012871-13.94022 0-3.77216-0.624371-10.59011-2.012871-13.939074-1.17605-2.83616-3.887685-4.74254-6.748647-4.74254zm-21.828274 4.61631c2.013437 0 3.714684 2.28393 3.714684 4.987094 0 2.7029-1.701247 4.98598-3.714684 4.98598s-3.714684-2.28308-3.714684-4.98598c0-2.703164 1.701247-4.987094 3.714684-4.987094zm21.828274 0c0.823855 0 1.975115 0.66439 2.485095 1.89454 0.978825 2.361124 1.660118 8.308724 1.660118 12.170764s-0.681293 9.81107-1.660118 12.17191c-0.50998 1.23043-1.66124 1.89341-2.485095 1.89341-0.823856 0-1.973985-0.66326-2.483966-1.89341-0.978825-2.36112-1.660115-8.30987-1.660115-12.17191s0.68129-9.80993 1.660115-12.170764c0.509981-1.23044 1.66011-1.89454 2.483966-1.89454zm-21.828274 14.786604c2.666544 0 4.919475 3.05537 4.919475 6.67201 0 3.61663-2.252931 6.67201-4.919475 6.67201-2.666554 0-4.919478-3.05538-4.919478-6.67201 0-3.61664 2.252924-6.67201 4.919478-6.67201z"/>
   <path d="m-141.66967 172.19848c-2.86097 0-5.57147 1.90496-6.74752 4.74141-1.38794 3.34868-2.01287 10.16805-2.01287 13.94021 0 3.77217 0.62437 10.59012 2.01287 13.93909 1.17549 2.83616 3.88655 4.74253 6.74752 4.74253 2.86096 0 5.57259-1.90609 6.74864-4.74253 1.38794-3.34868 2.01287-10.16692 2.01287-13.93909 0-3.77216-0.62437-10.59124-2.01287-13.94021-1.17549-2.83616-3.88768-4.74141-6.74864-4.74141zm-21.29181 7e-3c-1.06972-0.0874-2.09008 0.58465-2.4017 1.65561l-7.19269 24.69882c-8e-3 0.0292-8e-3 0.0587-0.0158 0.0879-0.0187 0.075-0.0316 0.15112-0.0428 0.22879-0.012 0.0824-0.0218 0.16388-0.0248 0.24569-1e-3 0.0283-9e-3 0.0548-9e-3 0.0834 0 0.0406 0.0103 0.0782 0.0124 0.11834 5e-3 0.0875 0.0116 0.17361 0.0259 0.25921 0.0111 0.0668 0.0261 0.13138 0.0428 0.1961 0.02 0.0771 0.0422 0.15222 0.0699 0.22654 0.0265 0.0713 0.057 0.13962 0.0902 0.20737 0.031 0.0636 0.0636 0.12548 0.1003 0.18596 0.0398 0.0654 0.0826 0.12734 0.12848 0.18822 0.0442 0.0589 0.09 0.11559 0.13975 0.17018 0.0487 0.0532 0.0999 0.10255 0.15328 0.15102 0.0571 0.0519 0.1155 0.10138 0.17807 0.14764 0.0592 0.0438 0.12035 0.0836 0.18371 0.12172 0.0626 0.0376 0.12585 0.073 0.19272 0.10481 0.0745 0.0357 0.15125 0.0648 0.22991 0.0924 0.0395 0.0138 0.0743 0.0344 0.11496 0.0462 0.0285 8e-3 0.0571 9e-3 0.0857 0.0157 0.0785 0.0197 0.15858 0.0325 0.24006 0.044 0.0759 0.0107 0.1511 0.0206 0.22653 0.0237 0.0317 1e-3 0.0615 9e-3 0.0935 9e-3h7.31216v5.73995c0 1.27467 1.03348 2.30815 2.30815 2.30815s2.30815-1.03348 2.30815-2.30815v-5.73995h2.26758c1.27467 0 2.30816-1.03349 2.30816-2.30816s-1.03349-2.30815-2.30816-2.30815h-2.26758v-9.95053c0-1.27467-1.03348-2.30815-2.30815-2.30815s-2.30815 1.03348-2.30815 2.30815v9.95053h-4.2365l6.33277-21.74601c0.3567-1.22367-0.34712-2.50511-1.57108-2.86153-0.15292-0.0446-0.30588-0.072-0.4587-0.0845zm21.29181 4.60955c0.82385 0 1.97511 0.66326 2.48509 1.89341 0.97883 2.36113 1.66012 8.30986 1.66012 12.1719 0 3.86205-0.68185 9.80994-1.66012 12.17078-0.51054 1.23043-1.66124 1.89453-2.48509 1.89453-0.82386 0-1.97399-0.66438-2.48397-1.89453-0.97883-2.36112-1.66012-8.30873-1.66012-12.17078 0-3.86204 0.68186-9.81106 1.66012-12.1719 0.51054-1.23043 1.66011-1.89341 2.48397-1.89341z"/>
   <path d="m-193.53224 285.60023c-4.85975 0-8.81335 3.61776-8.81335 8.06501 0 1.27467 1.03348 2.30815 2.30815 2.30815s2.30815-1.03348 2.30815-2.30815c0-1.90186 1.88269-3.44758 4.19705-3.44758 2.31379 0 4.1948 1.54572 4.1948 3.44758 0 2.2456-0.79342 3.38108-1.71308 4.6952l-0.70214 1.03912-0.50716 0.81146c-4.99169 7.95992-9.69591 15.87165-10.41599 19.94952-5e-3 0.0198-8e-3 0.0397-0.0124 0.0597-4e-3 0.0229-0.011 0.0494-0.0146 0.0721-9e-3 0.0591-5e-3 0.11709-0.0102 0.17581-5e-3 0.0631-0.0191 0.12379-0.0191 0.18822 0 0.0178 5e-3 0.0342 6e-3 0.0518 2e-3 0.0863 0.0146 0.16936 0.0259 0.25358 9e-3 0.0666 0.0137 0.1337 0.0282 0.19836 0.0176 0.0783 0.0444 0.15227 0.0699 0.22766 0.0234 0.0694 0.0437 0.13994 0.0733 0.20625 0.0287 0.0643 0.0659 0.12354 0.1003 0.18483 0.0377 0.0673 0.0731 0.13548 0.11721 0.19836 0.0417 0.0595 0.0904 0.11254 0.1375 0.16793 0.049 0.0576 0.0955 0.11656 0.14989 0.16905 0.0512 0.0495 0.1088 0.0917 0.16455 0.13637 0.0593 0.0476 0.1164 0.097 0.18032 0.13862 0.0597 0.0388 0.12466 0.0692 0.18822 0.10257 0.0709 0.0373 0.14027 0.0761 0.21526 0.10593 0.0601 0.0239 0.12435 0.0386 0.18709 0.0575 0.0844 0.0256 0.16763 0.0518 0.25583 0.0676 0.016 3e-3 0.0301 0.01 0.0462 0.0124 0.0585 9e-3 0.11544 5e-3 0.17356 0.0102 0.0635 5e-3 0.12453 0.0191 0.18934 0.0191h13.70804c1.27467 0 2.30815-1.03348 2.30815-2.30815s-1.03348-2.30816-2.30815-2.30816h-10.5332c2.07516-4.80003 7.03955-12.7172 8.90014-15.68485l0.51167-0.81709 0.56802-0.83964c1.07575-1.5367 2.54821-3.64086 2.54821-7.34146-9e-5 -4.44725-3.95202-8.06501-8.8112-8.06501zm21.9917 1e-3c-2.8604 0-5.57203 1.90524-6.74752 4.74141-1.3885 3.34896-2.014 10.16804-2.014 13.94021 0 3.77216 0.6255 10.59012 2.014 13.93908 1.17493 2.83617 3.88656 4.74254 6.74752 4.74254s5.57315-1.90581 6.74864-4.74254c1.38794-3.3484 2.01288-10.16692 2.01288-13.93908 0-3.77217-0.62438-10.59125-2.01288-13.94021-1.17549-2.83617-3.88824-4.74141-6.74864-4.74141zm0 4.61631c0.82329 0 1.97455 0.66325 2.4851 1.8934 0.97825 2.36056 1.66011 8.30958 1.66011 12.17191 0 3.86232-0.68186 9.81021-1.66011 12.17078-0.51055 1.23014-1.66124 1.89453-2.4851 1.89453s-1.97399-0.66382-2.48397-1.89341c-0.97882-2.36112-1.66124-8.30958-1.66124-12.1719 0-3.86233 0.68298-9.81135 1.66124-12.17191 0.51054-1.23015 1.66067-1.8934 2.48397-1.8934z"/>
   <path d="m-154.88978 387.56498c-2.8604 0-5.57428 1.90524-6.74977 4.7414-1.3885 3.34897-2.01287 10.16805-2.01287 13.94021 0 5e-3 1e-3 9e-3 1e-3 0.0135 1e-3 3.77469 0.62589 10.58026 2.01287 13.92556 1.17549 2.83616 3.88712 4.74253 6.74864 4.74253 2.86096 0 5.57203-1.9058 6.74752-4.74253 1.38793-3.3484 2.014-10.16692 2.014-13.93908 0-3.77217-0.6255-10.59125-2.014-13.94021-1.17606-2.83617-3.88712-4.74141-6.74752-4.74141zm0 4.6163c0.8233 0 1.97286 0.66326 2.48284 1.89341 0.97883 2.36056 1.66237 8.30958 1.66237 12.1719 0 3.86233-0.68354 9.81022-1.66237 12.17078-0.50998 1.23015-1.65898 1.89453-2.48284 1.89453s-1.97568-0.66382-2.4851-1.8934c-0.97938-2.36113-1.66011-8.30958-1.66011-12.17191 0-3e-3 -1e-3 -6e-3 -1e-3 -9e-3 9.8e-4 -3.86256 0.68313-9.80406 1.66123-12.1629 0.50998-1.23014 1.66124-1.8934 2.4851-1.8934z"/>
   <path d="m119.61833 162.88224c-1.27466 0-2.30815 1.03348-2.30815 2.30816v32.74692c0 1.27467 1.03349 2.30816 2.30815 2.30816 1.27467 0 2.30816-1.03349 2.30816-2.30816v-32.74692c0-1.27468-1.03349-2.30815-2.30816-2.30816zm18.53736 0c-2.86096 0-5.57316 1.90496-6.74865 4.74141-1.3885 3.34868-2.01287 10.16805-2.01287 13.94021 0 3.77217 0.62437 10.59012 2.01287 13.93909 1.17549 2.83616 3.88769 4.74253 6.74865 4.74253s5.57259-1.90609 6.74864-4.74253c1.3885-3.3487 2.01287-10.16693 2.01287-13.93909 0-3.77217-0.62437-10.59125-2.01287-13.94021-1.17605-2.83617-3.88768-4.74141-6.74864-4.74141zm22.08298 0c-2.86095 0-5.57315 1.90496-6.74864 4.74141-1.38849 3.34868-2.01287 10.16805-2.01287 13.94021 0 3.77217 0.62438 10.59012 2.01287 13.93909 1.17549 2.83616 3.88769 4.74253 6.74864 4.74253 2.86097 0 5.57428-1.90609 6.74977-4.74253 1.3885-3.3487 2.01287-10.16693 2.01287-13.93909 0-3.77217-0.62437-10.59125-2.01287-13.94021-1.17549-2.83617-3.8888-4.74141-6.74977-4.74141zm-22.08298 4.61631c0.82385 0 1.97398 0.66325 2.48396 1.89341 0.97883 2.36112 1.66125 8.30986 1.66125 12.1719s-0.68242 9.80993-1.66125 12.17078c-0.50998 1.23043-1.66011 1.89453-2.48396 1.89453-0.82386 0-1.97399-0.66438-2.48397-1.89453-0.97883-2.36113-1.66124-8.30874-1.66124-12.17078s0.68241-9.81107 1.66124-12.1719c0.50998-1.23043 1.66011-1.89341 2.48397-1.89341zm22.08298 0c0.82387 0 1.97399 0.66325 2.48397 1.89341 0.97883 2.36112 1.66237 8.30986 1.66237 12.1719s-0.68354 9.80993-1.66237 12.17078c-0.50998 1.23043-1.6601 1.89453-2.48397 1.89453-0.82385 0-1.97342-0.66438-2.48284-1.89453-0.97883-2.36113-1.66237-8.30874-1.66237-12.17078s0.68354-9.81107 1.66237-12.1719c0.50942-1.23043 1.65899-1.89341 2.48284-1.89341z"/>
   <path d="m157.74334 269.39184c-1.27467 0-2.30816 1.03348-2.30816 2.30816v32.74692c0 1.27467 1.03349 2.30816 2.30816 2.30816s2.30815-1.03349 2.30815-2.30816v-32.74692c0-1.27468-1.03348-2.30815-2.30815-2.30816zm18.07527 0c-4.85975 0-8.81449 3.61664-8.81449 8.06389 0 1.27467 1.03349 2.30815 2.30816 2.30815 1.27466 0 2.30815-1.03348 2.30815-2.30815 0-1.90242 1.88383-3.44758 4.19818-3.44758 2.31378 0 4.1948 1.54516 4.1948 3.44758 0 2.24504-0.79343 3.38108-1.71308 4.6952l-0.70102 1.03911-0.50829 0.81147c-4.99168 7.95992-9.6959 15.87166-10.41599 19.94952-5e-3 0.0198-8e-3 0.0397-0.0124 0.0597-4e-3 0.0229-0.011 0.0495-0.0146 0.0721-9e-3 0.0592-5e-3 0.11709-0.0102 0.17581-5e-3 0.0631-0.0191 0.12379-0.0191 0.18821 0 0.0178 5e-3 0.0342 6e-3 0.0519 2e-3 0.0863 0.0146 0.16937 0.0259 0.25358 9e-3 0.0666 0.0137 0.1337 0.0282 0.19835 0.0176 0.0782 0.0444 0.15229 0.0699 0.22766 0.0234 0.0694 0.0437 0.13994 0.0733 0.20625 0.0287 0.0643 0.0659 0.12356 0.10031 0.18483 0.0377 0.0673 0.0731 0.13548 0.11721 0.19836 0.0417 0.0595 0.0904 0.11256 0.1375 0.16793 0.049 0.0576 0.0955 0.11656 0.14989 0.16905 0.0488 0.0471 0.10374 0.0868 0.15665 0.12961 0.0631 0.0511 0.12439 0.10337 0.19273 0.14764 0.0512 0.0331 0.10708 0.0588 0.16116 0.0879 0.0796 0.043 0.15855 0.0859 0.24344 0.11947 0.0529 0.0208 0.10958 0.0337 0.16455 0.0507 0.0898 0.0279 0.17859 0.0564 0.27274 0.0733 0.016 3e-3 0.0301 0.01 0.0462 0.0124 0.0555 9e-3 0.10942 4e-3 0.16454 9e-3 0.0664 6e-3 0.13046 0.0203 0.19836 0.0203h13.70804c1.27466 0 2.30815-1.03349 2.30815-2.30815 0-1.27467-1.03349-2.30816-2.30815-2.30816h-10.5332c2.0748-4.80022 7.03896-12.71746 8.90014-15.68484l0.51167-0.81822 0.56689-0.83739c1.07576-1.53614 2.54934-3.64143 2.54934-7.34259 0-4.44725-3.95193-8.06388-8.81111-8.06388zm22.21935 0c-2.86039 0-5.57146 1.9058-6.74751 4.74141-1.3885 3.34952-2.01287 10.16805-2.01287 13.94021 0 3.77217 0.62437 10.59068 2.01287 13.93909 1.17549 2.83672 3.88655 4.74253 6.74751 4.74253 2.86097 0 5.57316-1.90581 6.74865-4.74253 1.3885-3.34841 2.01287-10.16692 2.01287-13.93909s-0.62437-10.59069-2.01287-13.94021c-1.17605-2.83561-3.88825-4.7414-6.74865-4.74141zm0 4.61631c0.82386 0 1.97512 0.66382 2.4851 1.89341 0.97882 2.36113 1.66012 8.30958 1.66012 12.1719 0 3.86233-0.6813 9.81078-1.66012 12.17078-0.50941 1.23071-1.66124 1.89453-2.4851 1.89453-0.82385 0-1.97454-0.66381-2.48396-1.8934-0.97883-2.36113-1.66012-8.30958-1.66012-12.17191s0.68129-9.81077 1.66012-12.1719c0.50998-1.22959 1.66011-1.89341 2.48396-1.89341z"/>
   <path d="m123.36965 379.77527c-1.27467 0-2.30815 1.03349-2.30815 2.30816v32.74693c0 1.27467 1.03348 2.30815 2.30815 2.30815s2.30816-1.03348 2.30816-2.30815v-32.74693c0-1.27467-1.03349-2.30816-2.30816-2.30816zm40.45692 0c-2.8604 0-5.57315 1.90525-6.74864 4.74142-1.3885 3.34896-2.01287 10.16804-2.01287 13.9402 0 5e-3 1e-3 9e-3 1e-3 0.0135 1e-3 3.77469 0.62589 10.58026 2.01287 13.92556 1.17518 2.83542 3.88682 4.74154 6.74752 4.74253h2e-3c2.85957-1e-3 5.5712-1.90654 6.74639-4.74253 1.38849-3.3484 2.01399-10.16692 2.01399-13.93909 0-3.77216-0.6255-10.59124-2.01399-13.9402-1.17662-2.83617-3.88825-4.74141-6.74865-4.74141zm-21.4124 7e-3c-1.0701-0.0872-2.09008 0.58465-2.4017 1.6556l-7.19382 24.69883c-8e-3 0.0285-9e-3 0.0571-0.0158 0.0856-0.0193 0.0771-0.0315 0.15562-0.0428 0.23555-0.0114 0.0801-0.0207 0.15935-0.0237 0.23893-1e-3 0.0291-9e-3 0.0563-9e-3 0.0856 0 0.0417 0.0102 0.0806 0.0124 0.12173 5e-3 0.0836 0.0114 0.16607 0.0248 0.24794 0.012 0.0742 0.0273 0.14591 0.0462 0.21752 0.0186 0.07 0.0393 0.13852 0.0642 0.20624 0.0278 0.0756 0.0594 0.14814 0.0947 0.21977 0.0295 0.0602 0.0611 0.11836 0.0958 0.17582 0.042 0.0694 0.0875 0.13511 0.13638 0.19948 0.041 0.0543 0.0838 0.10602 0.12961 0.15666 0.0523 0.0576 0.10676 0.11137 0.16454 0.16342 0.0536 0.0484 0.10846 0.0941 0.1668 0.1375 0.0628 0.0467 0.1275 0.0893 0.19498 0.12961 0.0594 0.0354 0.11938 0.0689 0.18257 0.0992 0.0777 0.0373 0.15788 0.0684 0.24006 0.0969 0.0378 0.0131 0.0716 0.0326 0.11045 0.044 0.0282 8e-3 0.0563 9e-3 0.0845 0.0157 0.0756 0.0189 0.15273 0.0316 0.23104 0.0428 0.0825 0.0119 0.16377 0.0218 0.24569 0.0248 0.0283 1e-3 0.0548 9e-3 0.0834 9e-3h7.31216v5.73995c0 1.27467 1.03348 2.30815 2.30816 2.30815 1.27466 0 2.30815-1.03348 2.30815-2.30815v-5.73995h2.26758c1.27467 0 2.30815-1.03349 2.30815-2.30815 0-1.27468-1.03348-2.30816-2.30815-2.30816h-2.26758v-9.95053c0-1.27467-1.03349-2.30815-2.30815-2.30815-1.27468 0-2.30816 1.03348-2.30816 2.30815v9.95053h-4.23537l6.33277-21.74601c0.35614-1.22395-0.34712-2.50482-1.57107-2.86152-0.153-0.0445-0.30696-0.0721-0.45983-0.0845zm21.4124 4.60954c0.82386 0 1.97343 0.66327 2.48397 1.89341 0.97826 2.36056 1.66237 8.30958 1.66237 12.1719 0 3.86233-0.68411 9.81022-1.66237 12.17078-0.50919 1.22962-1.65906 1.89396-2.48284 1.89454h-1e-3c-0.82378-5.2e-4 -1.97364-0.66435-2.48284-1.89341-0.97939-2.36112-1.66124-8.30958-1.66124-12.17191 0-3e-3 -1e-3 -6e-3 -1e-3 -9e-3 1e-3 -3.86255 0.68257-9.80406 1.66124-12.16289 0.50941-1.23014 1.66011-1.8934 2.48396-1.8934z"/>
  </g>
 </g>
</svg>
