<?xml version="1.0" encoding="UTF-8"?>
<svg class="svg-content" style="position:absolute" preserveAspectRatio="xMinYMin meet" version="1.1" viewBox="-100 -100 1200 1400" xml:space="preserve" xmlns="http://www.w3.org/2000/svg"><defs><linearGradient id="d" x1="-270.77631" x2="1217.7178" y1="-267.41229" y2="1221.0818" gradientTransform="translate(-4e-6)" gradientUnits="userSpaceOnUse"><stop stop-color="#141414" offset="0"/><stop stop-color="#797979" offset="1"/></linearGradient><linearGradient id="c" x1="-38.146317" x2="1008.7557" y1="-41.613602" y2="1005.2884" gradientUnits="userSpaceOnUse"><stop stop-color="#4b4b4b" offset="0"/><stop stop-color="#bdbdbd" stop-opacity="0" offset="1"/></linearGradient></defs><circle cx="499" cy="498.99994" r="512.58411" fill="url(#c)" stroke-width=".98195171"/><circle cx="500" cy="499.99994" r="512.58411" fill="url(#d)" stroke-width=".98195171"/><g transform="matrix(.98195172 0 0 .98195172 -461.14416 -417.12325)"><circle cx="978.81" cy="933.97992" r="509.19"/><path d="m827.7 568.23-25.688-62.178c-7.7476 3.2041-15.39 6.6104-22.918 10.216l29.018 60.694c6.4351-3.082 12.967-5.9936 19.589-8.7319zm-243.78 341.23-67.13-4.16c-0.50782 8.3008-0.79248 16.661-0.85694 25.074l67.256 0.52539c0.0552-7.1914 0.29883-14.337 0.73242-21.432zm194.37-316.61-34.088-57.992c-7.2158 4.2505-14.304 8.6943-21.263 13.319l37.178 56.057c5.9473-3.9522 12.006-7.7505 18.173-11.384zm-23.291 14.842-38.048-55.469c-6.8989 4.7412-13.665 9.6621-20.287 14.761l40.996 53.324c5.6597-4.3574 11.442-8.5635 17.339-12.616zm98.585-49.117-21.288-63.819c-7.958 2.6533-15.822 5.5112-23.582 8.5786l24.714 62.573c6.6318-2.6216 13.354-5.0644 20.155-7.3325zm125.22-20.234c3.585 0 7.1582 0.0508 10.721 0.14551l1.8223-67.234c-4.168-0.11084-8.3486-0.16992-12.543-0.16992-4.1948 0-8.376 0.0591-12.544 0.16992l1.8228 67.234c3.5625-0.0947 7.1358-0.14551 10.721-0.14551zm-16.894 0.36133-2.8716-67.198c-8.4028 0.35303-16.747 0.93116-25.028 1.7261l6.5088 66.947c7.0776-0.67969 14.209-1.1733 21.391-1.4751zm-27.535 2.1104-7.5532-66.838c-8.352 0.93359-16.638 2.0864-24.85 3.4585l11.164 66.336c7.0186-1.1724 14.101-2.1582 21.239-2.956zm-54.302 9.9478-16.785-65.148c-8.1299 2.0889-16.171 4.3994-24.123 6.9121l20.29 64.143c6.7959-2.1475 13.668-4.1221 20.618-5.9072zm-147.28 73.356-41.822-52.677c-6.5503 5.2075-12.961 10.583-19.215 16.13l44.614 50.333c5.3457-4.7417 10.825-9.3354 16.423-13.786zm174.26-79.278-12.198-66.154c-8.2612 1.5137-16.447 3.2456-24.548 5.1914l15.765 65.4c6.9248-1.6631 13.92-3.1436 20.981-4.437zm-291.02 231.01-61.671-26.883c-3.3389 7.6494-6.4712 15.409-9.4018 23.267l63.037 23.503c2.5054-6.7163 5.1826-13.349 8.0361-19.886zm-10.16 25.69-63.39-22.52c-2.792 7.8608-5.3774 15.819-7.75 23.868l64.523 19.048c2.0278-6.8799 4.2378-13.682 6.624-20.4zm-19.324 80.437-66.682-8.8418c-1.084 8.2529-1.956 16.572-2.5991 24.956l67.06 5.2158c0.54932-7.166 1.2954-14.276 2.2217-21.33zm125.23-239.94-45.4-49.63c-6.1709 5.6475-12.189 11.458-18.045 17.428l48.016 47.098c5.0054-5.1025 10.149-10.069 15.423-14.895zm-120.68 212.69-65.91-13.47c-1.6597 8.1626-3.0991 16.405-4.3232 24.718l66.538 9.8809c1.0459-7.1045 2.2759-14.149 3.6948-21.126zm36.863-103.79-59.642-31.118c-3.8686 7.3999-7.5444 14.916-11.018 22.545l61.243 27.842c2.9688-6.52 6.1104-12.944 9.417-19.269zm-30.408 76.938-64.812-18.038c-2.2305 8.0322-4.2539 16.15-6.0562 24.352l65.692 14.5c1.54-7.0098 3.2695-13.949 5.1763-20.814zm94.508-166.5-48.745-46.343c-5.7627 6.0591-11.359 12.277-16.79 18.642l51.185 43.634c4.6411-5.439 9.4243-10.754 14.35-15.933zm-50.455 65.546-57.323-35.2c-4.3779 7.1142-8.5757 14.352-12.573 21.714l59.149 32.045c3.4165-6.2925 7.0039-12.479 10.746-18.56zm32.129-44.887-51.86-42.831c-5.3267 6.4419-10.478 13.034-15.455 19.763l54.106 39.959c4.2544-5.751 8.6567-11.385 13.209-16.892zm-16.845 21.884-54.724-39.11c-4.8648 6.7944-9.5503 13.726-14.05 20.788l56.766 36.09c3.8457-6.0356 7.8506-11.959 12.008-17.767zm145.66-124.25-29.96-60.23c-7.5 3.7378-14.881 7.6772-22.142 11.803l33.179 58.518c6.2061-3.5264 12.515-6.894 18.925-10.088zm547.05 216.06 63.037-23.502c-2.9307-7.8564-6.0625-15.615-9.4014-23.264l-61.671 26.883c2.8536 6.5371 5.5303 13.168 8.0352 19.883zm-22.871-50.249 59.148-32.045c-3.997-7.3618-8.1933-14.599-12.571-21.712l-57.322 35.2c3.7412 6.0801 7.3291 12.266 10.745 18.558zm12.316 24.723 61.243-27.842c-3.4737-7.6274-7.1494-15.144-11.018-22.542l-59.642 31.118c3.3057 6.3237 6.4473 12.748 9.416 19.267zm-41.982-71.278 54.106-39.959c-4.9776-6.728-10.128-13.32-15.454-19.761l-51.86 42.831c4.5527 5.5059 8.9551 11.14 13.209 16.89zm15.644 22.76 56.765-36.09c-4.4981-7.061-9.1836-13.992-14.048-20.786l-54.724 39.11c4.1572 5.8066 8.1611 11.73 12.007 17.765zm57.48 154.17 66.537-9.8809c-1.2236-8.312-2.6631-16.553-4.3222-24.715l-65.909 13.473c1.4189 6.9756 2.6484 14.02 3.6943 21.123zm3.0742 27.446 67.06-5.2158c-0.6426-8.3828-1.5156-16.701-2.5986-24.952l-66.682 8.8408c0.9258 7.0527 1.6719 14.162 2.2207 21.327zm1.1543 27.592 67.256-0.52539c-0.064-8.4121-0.3496-16.771-0.8574-25.071l-67.131 4.168c0.4336 7.0938 0.6777 14.238 0.7324 21.429zm-350.8-457.66c-8.2803-0.79492-16.624-1.373-25.026-1.7261l-2.8711 67.198c7.1807 0.30176 14.311 0.79541 21.389 1.4751l6.5088-66.947zm334.75 348.7 64.522-19.048c-2.3721-8.0488-4.957-16.006-7.749-23.866l-63.396 22.516c2.3857 6.7173 4.5957 13.518 6.6231 20.397zm6.874 26.753 65.69-14.5c-1.8018-8.2007-3.8242-16.318-6.0547-24.35l-64.812 18.038c1.9062 6.8643 3.6357 13.802 5.1758 20.812zm-85.336-171.38 51.185-43.634c-5.4307-6.3638-11.026-12.581-16.789-18.64l-48.744 46.343c4.9248 5.1782 9.707 10.493 14.349 15.932zm-130.39-100.35 29.018-60.693c-7.5283-3.606-15.17-7.0117-22.917-10.216l-25.688 62.178c6.6211 2.7383 13.152 5.6494 19.587 8.731zm-51.346-20.292 20.29-64.144c-7.9512-2.5127-15.991-4.8228-24.121-6.9111l-16.784 65.148c6.9483 1.7847 13.82 3.7593 20.615 5.9067zm26.031 9.2393 24.715-62.572c-7.7587-3.0669-15.622-5.9248-23.58-8.5781l-21.288 63.819c6.8008 2.2676 13.522 4.71 20.153 7.3311zm137.06 91.028 48.016-47.098c-5.8565-5.9697-11.874-11.78-18.044-17.427l-45.394 49.63c5.2734 4.8257 10.417 9.792 15.422 14.894zm-216.78-113.17 11.164-66.336c-8.211-1.3716-16.496-2.5249-24.848-3.458l-7.5527 66.839c7.1377 0.79736 14.219 1.7827 21.236 2.9551zm27.066 5.5068 15.765-65.4c-8.1005-1.9458-16.285-3.6777-24.546-5.1909l-12.198 66.154c7.0606 1.2935 14.056 2.7734 20.98 4.4365zm148.42 71.031 40.995-53.324c-6.622-5.0981-13.387-10.019-20.285-14.76l-38.048 55.469c5.8965 4.0522 11.679 8.2578 17.338 12.615zm21.286 17.595 44.613-50.334c-6.2539-5.5474-12.664-10.922-19.213-16.128l-41.822 52.677c5.5976 4.4502 11.076 9.0435 16.422 13.785zm-67.266-48.143 33.179-58.518c-7.2607-4.126-14.642-8.0654-22.141-11.803l-29.961 60.233c6.4091 3.1943 12.717 6.561 18.923 10.087zm23.522 14.474 37.178-56.057c-6.958-4.624-14.046-9.0679-21.262-13.318l-34.088 57.993c6.167 3.6328 12.225 7.4307 18.172 11.383zm-146.94 718.88997 12.198 66.154c8.2618-1.5137 16.447-3.2461 24.549-5.1924l-15.765-65.399c-6.9248 1.663-13.921 3.1435-20.982 4.4375zm214.98-116.54 48.744 46.343c5.7627-6.0596 11.359-12.277 16.79-18.642l-51.185-43.634c-4.6416 5.4394-9.4248 10.754-14.35 15.933zm-86.218 68.528 34.088 57.992c7.2168-4.251 14.306-8.6953 21.265-13.319l-37.178-56.058c-5.9482 3.9522-12.007 7.751-18.175 11.385zm66.502-49.191 45.394 49.63c6.1709-5.6475 12.188-11.458 18.046-17.429l-48.016-47.097c-5.0058 5.1025-10.149 10.068-15.424 14.896zm-90.775 62.37 29.962 60.232c7.5-3.7382 14.881-7.6777 22.143-11.804l-33.179-58.518c-6.2061 3.5263-12.515 6.8935-18.926 10.089zm69.768-44.446 41.821 52.678c6.5507-5.208 12.961-10.583 19.216-16.131l-44.614-50.333c-5.3457 4.7412-10.824 9.3359-16.423 13.786zm-246.01 85.775c-3.585 0-7.1587-0.051-10.721-0.1455l-1.8228 67.234c4.168 0.1103 8.3486 0.1699 12.543 0.1699 4.1948 0 8.376-0.06 12.544-0.1699l-1.8223-67.234c-3.5625 0.095-7.1362 0.1455-10.722 0.1455zm44.43-2.4717 7.5527 66.838c8.3525-0.9326 16.639-2.0859 24.851-3.458l-11.163-66.336c-7.0195 1.1728-14.102 2.1582-21.24 2.956zm-27.536 2.1104 2.8721 67.197c8.4023-0.3526 16.747-0.9307 25.028-1.7256l-6.5078-66.947c-7.0781 0.6797-14.211 1.1738-21.393 1.4756zm81.838-12.058 16.784 65.147c8.1309-2.0888 16.172-4.3994 24.124-6.9121l-20.29-64.144c-6.7959 2.1484-13.669 4.123-20.618 5.9082zm26.493-7.8155 21.289 63.819c7.9581-2.6543 15.822-5.5117 23.582-8.5791l-24.715-62.572c-6.6318 2.6211-13.354 5.0645-20.156 7.332zm25.881-9.6523 25.688 62.178c7.7481-3.2041 15.391-6.6113 22.92-10.217l-29.018-60.693c-6.4356 3.082-12.968 5.9931-19.59 8.7324zm72.705-39.464 38.048 55.469c6.8994-4.7412 13.665-9.6621 20.287-14.761l-40.995-53.324c-5.6602 4.3574-11.443 8.5635-17.34 12.616zm163.89-247.04 65.908 13.473c1.6591-8.1622 3.0986-16.404 4.3222-24.716l-66.536-9.88077c-1.0459 7.1035-2.2764 14.14697-3.6944 21.12397zm-6.456 26.856 64.812 18.038c2.2305-8.0322 4.2539-16.149 6.0557-24.351l-65.691-14.5c-1.5401 7.0098-3.2696 13.947-5.1758 20.812zm11.003-54.09997 66.682 8.8418c1.0839-8.252 1.956-16.57 2.5986-24.953l-67.059-5.2158c-0.5498 7.165-1.2959 14.274-2.2217 21.327zm-19.324 80.43897 63.398 22.516c2.791-7.8603 5.3769-15.818 7.749-23.867l-64.522-19.048c-2.0273 6.8799-4.2373 13.681-6.624 20.399zm21.967-107.92997 67.131 4.168c0.5078-8.2998 0.7929-16.659 0.8574-25.071l-67.256-0.52539c-0.055 7.1904-0.2988 14.335-0.7324 21.429zm-32.118 133.61997 61.671 26.883c3.3389-7.6485 6.4717-15.408 9.4024-23.266l-63.037-23.502c-2.5049 6.7158-5.1817 13.348-8.0362 19.885zm-57.71 93.81 51.859 42.831c5.3271-6.4424 10.478-13.035 15.455-19.763l-54.105-39.96c-4.2539 5.751-8.6573 11.386-13.209 16.892zm16.845-21.884 54.724 39.11c4.8643-6.7949 9.5498-13.726 14.05-20.788l-56.766-36.09c-3.8457 6.0362-7.8506 11.96-12.008 17.768zm15.284-23.004 57.322 35.2c4.378-7.1142 8.5752-14.352 12.572-21.714l-59.148-32.045c-3.417 6.293-7.0039 12.478-10.746 18.559zm13.646-24.013 59.642 31.117c3.8691-7.3994 7.5449-14.916 11.018-22.544l-61.243-27.842c-2.9688 6.5195-6.1104 12.944-9.417 19.268zm-711.09-19.27-61.243 27.842c3.4736 7.6289 7.1499 15.146 11.019 22.547l59.642-31.117c-3.3071-6.3252-6.4492-12.751-9.4184-19.272zm-10.554-25.526-63.038 23.503c2.9312 7.8584 6.0635 15.618 9.4028 23.268l61.671-26.884c-2.854-6.538-5.5312-13.171-8.0366-19.888zm69.721 118.42-51.184 43.634c5.4312 6.3652 11.028 12.584 16.792 18.644l48.745-46.343c-4.9258-5.1797-9.7095-10.495-14.352-15.935zm-46.85-68.173-59.149 32.045c3.9976 7.3632 8.1953 14.601 12.574 21.716l57.322-35.2c-3.7422-6.0811-7.3301-12.268-10.747-18.561zm29.666 46.555-54.106 39.96c4.978 6.7285 10.129 13.321 15.457 19.765l51.86-42.831c-4.5532-5.5068-8.9561-11.142-13.211-16.894zm-15.644-22.76-56.765 36.091c4.4995 7.0625 9.1855 13.994 14.05 20.789l54.724-39.11c-4.1582-5.8086-8.1636-11.733-12.009-17.77zm-61.707-209.20997-67.256 0.52539c0.0645 8.4131 0.34912 16.773 0.85694 25.074l67.131-4.168c-0.43359-7.0947-0.67773-14.24-0.73242-21.432zm4.2275 55.037-66.537 9.88187c1.2241 8.3125 2.6631 16.556 4.3228 24.718l65.909-13.473c-1.4185-6.9766-2.6489-14.02197-3.6948-21.12697zm-3.0737-27.445-67.06 5.2158c0.64307 8.3838 1.5156 16.703 2.5991 24.956l66.682-8.8418c-0.92627-7.0537-1.6719-14.164-2.2212-21.33zm8.0478 54.61397-65.692 14.5c1.8022 8.2011 3.8257 16.32 6.0566 24.352l64.812-18.038c-1.9067-6.8652-3.6362-13.805-5.1763-20.814zm6.873 26.752-64.523 19.048c2.3726 8.0508 4.9585 16.009 7.7505 23.87l63.397-22.516c-2.3867-6.7198-4.5967-13.522-6.6245-20.402zm313.88 278.17-11.164 66.336c8.2134 1.3721 16.501 2.5254 24.855 3.459l7.5527-66.839c-7.1401-0.7978-14.224-1.7832-21.244-2.956zm-105.02-33.192-29.018 60.693c7.5298 3.6064 15.174 7.0136 22.922 10.218l25.688-62.178c-6.6226-2.7393-13.156-5.6504-19.592-8.7334zm51.345 20.293-20.289 64.144c7.9526 2.5127 15.995 4.8233 24.127 6.9121l16.784-65.147c-6.9502-1.7852-13.824-3.7598-20.622-5.9082zm-26.031-9.2403-24.714 62.572c7.7608 3.0684 15.626 5.9268 23.586 8.5801l21.288-63.818c-6.8027-2.2685-13.526-4.7119-20.159-7.334zm100.59 92.678c8.2827 0.7949 16.629 1.373 25.033 1.7265l2.8716-67.198c-7.1831-0.3018-14.317-0.7959-21.396-1.4756l-6.5088 66.947zm-47.94-76.046-15.765 65.4c8.1035 1.9463 16.29 3.6787 24.553 5.1924l12.198-66.154c-7.0625-1.294-14.06-2.7745-20.986-4.4385zm-169.7-88.627-44.614 50.333c6.2554 5.5489 12.667 10.925 19.218 16.133l41.822-52.678c-5.5991-4.4512-11.079-9.0459-16.426-13.788zm21.286 17.594-40.996 53.325c6.6235 5.0996 13.39 10.02 20.29 14.763l38.048-55.469c-5.898-4.0537-11.681-8.2598-17.342-12.619zm45.979 30.55-33.179 58.518c7.2627 4.1269 14.645 8.0673 22.146 11.806l29.961-60.233c-6.4111-3.1953-12.721-6.5625-18.929-10.09zm-87.272-67.178-48.015 47.098c5.8574 5.9717 11.876 11.782 18.048 17.431l45.393-49.63c-5.2749-4.8272-10.419-9.7949-15.426-14.898zm63.75 52.703-37.178 56.058c6.9595 4.625 14.049 9.0693 21.267 13.321l34.088-57.993c-6.1689-3.6338-12.229-7.4326-18.177-11.386z" fill="#a0e000"/><path d="m727.31 645.12 20.931 24.944c3.5029-3.0625 7.0645-6.0601 10.688-8.9839l-20.928-24.941c-3.6191 2.9292-7.1831 5.9238-10.691 8.981zm-126.88 229.23 32.069 5.6543c0.71338-4.6143 1.5195-9.1992 2.4111-13.753l-32.073-5.6553c-0.88378 4.5566-1.686 9.1416-2.4067 13.754zm0 119.26c0.7207 4.6123 1.523 9.1972 2.4067 13.753l32.073-5.6553c-0.8916-4.5537-1.6978-9.1377-2.4111-13.752l-32.069 5.6543zm240.82-417.18 11.14 30.605c4.3325-1.6763 8.7056-3.271 13.12-4.7783l-11.139-30.604c-4.4102 1.5142-8.7842 3.1069-13.12 4.7764zm-197.63 172.1 28.204 16.283c2.2529-4.0786 4.5816-8.1099 6.9898-12.087l-28.201-16.282c-2.4019 3.9819-4.7329 8.0112-6.9922 12.086zm328.2-197.48v32.561c2.3223-0.0454 4.648-0.0752 6.981-0.0752s4.6592 0.0298 6.9814 0.0752v-32.561c-2.3228-0.0415-4.6489-0.0698-6.9814-0.0698s-4.6582 0.0283-6.981 0.0698zm306.98 201.68c2.4082 3.977 4.7363 8.0073 6.9892 12.085l28.204-16.284c-2.2597-4.0737-4.5898-8.1025-6.9922-12.084l-28.201 16.282zm-48.493-107.6c-3.5078-3.0566-7.0713-6.0508-10.69-8.9795l-20.929 24.941c3.6241 2.9233 7.1846 5.9199 10.688 8.9824l20.931-24.944zm-113.93-68.686c-4.3359-1.6689-8.709-3.2617-13.119-4.7759l-11.139 30.604c4.4131 1.5068 8.7861 3.1016 13.118 4.7778l11.14-30.606zm-275.16 715.06c4.3359 1.6689 8.7095 3.2617 13.12 4.7753l11.139-30.604c-4.4136-1.5068-8.7866-3.1015-13.119-4.7773l-11.139 30.606zm481.47-289.82 32.074 5.6553c0.8838-4.5557 1.6856-9.1406 2.4063-13.752l-32.069-5.6553c-0.7129 4.6152-1.5196 9.1982-2.4112 13.752zm-43.914 113.53 28.201 16.282c2.4024-3.9815 4.7334-8.0108 6.9922-12.085l-28.204-16.283c-2.2529 4.0782-4.581 8.1084-6.9892 12.086zm-80.111 91.642 20.929 24.94c3.6192-2.9287 7.1827-5.9229 10.69-8.9805l-20.931-24.944c-3.5029 3.0635-7.0644 6.0605-10.688 8.9844zm-555.08-87.4c2.2593 4.0742 4.5903 8.1035 6.9922 12.085l28.201-16.281c-2.4082-3.9776-4.7368-8.0088-6.9893-12.087l-28.204 16.283zm713.56-245.09c-0.7207-4.6113-1.5225-9.1963-2.4063-13.751l-32.074 5.6558c0.8916 4.5527 1.6983 9.1367 2.4112 13.751l32.069-5.6553zm-629.89 348.49c3.5083 3.0567 7.0723 6.0508 10.691 8.9805l20.928-24.941c-3.624-2.9238-7.1856-5.9209-10.688-8.9834l-20.931 24.944zm244.51 61.511v32.56c2.3228 0.042 4.6484 0.07 6.981 0.07 2.3325 0 4.6587-0.028 6.9814-0.07v-32.56c-2.3223 0.045-4.6484 0.075-6.9814 0.075s-4.6587-0.03-6.981-0.075zm120.29-18.651 11.139 30.604c4.4101-1.5146 8.7841-3.1074 13.119-4.7763l-11.139-30.606c-4.333 1.6767-8.706 3.2705-13.119 4.7783z" fill="#a0e000"/><polygon points="978.3 1422.7 784.96 1382 692.3 1300 744.96 1233.4 1214.3 1233.4 1268.3 1307.4 1223.6 1365.4"/></g><g transform="matrix(.98195172 0 0 .98195172 -461.14416 -417.12325)"><g fill="none" stroke="#c0ff00"><g stroke-linecap="round" stroke-linejoin="round" stroke-width="5.5"><line x1="956.94" x2="956.94" y1="757.57001" y2="794.52002"/><line x1="972.48999" x2="941.40002" y1="762.64001" y2="762.64001"/><path d="m944.7 774.75c0 2.9492 0.86963 4.4648 5.5625 4.4648h13.3569c4.6924 0 5.561-1.5156 5.561-4.4648 0-2.9487-0.86865-4.4644-5.561-4.4644h-13.3569c-4.6929 0-5.5625 1.5156-5.5625 4.4644z"/><path d="m940.73 792.44c4.3032-2.582 11.329-8.3916 15.956-12.372"/><path d="m975.19 792.94c-5.5938-2.582-12.619-7.0571-17.159-10.747"/><path d="m929.8 758.94c1.3984 0.86084 3.1196 2.3672 3.9805 3.6582"/><path d="m926.13 780.97h5.6582c1.4199 0 3.0464 0.94434 3.0464 2.6797v7.4014c0 3.3789 1.3008 6.1006 6.5723 7.9292 5.2725 1.8296 24.638 2.1524 33.901 1.248"/><path d="m927.02 801.05c2.4751-1.7212 6.0342-4.292 8.0776-6.4438"/><path d="m1000.5 784.32h19.365c2.9043 0 5.0391 0.27832 1.6572 4.1958-7.8974 9.1445-11.018 10.005-25.542 13.34"/><path d="m1004.8 784.5c6.7998 12.942 17.56 16.385 27.35 17.676"/><path d="m985.24 800.54c6.3818-8.9502 6.209-15.607 6.209-33.91 0-4.7344 1.7217-5.3257 5.3262-5.3257h33.157"/><line x1="1012.7" x2="1012.7" y1="755.54999" y2="761.09003"/><path d="m1020.8 761.68v12.156c0 2.4751-0.6143 4.0991-4.6485 4.0991h-5.414c-4.0342 0-4.6485-1.624-4.6485-4.0991v-12.156"/><line x1="998.03003" x2="1029.6" y1="769.78003" y2="769.78003"/></g><path d="m960.23 649.52c0.25-11 3.6489-26.692 11.433-42.817v-4.6826h-21.034" stroke-width="7"/></g><g fill="#c0ff00"><path d="m1008.6 609.9c0-7.2095-3.335-12.316-12.365-12.316-9.0303 0-12.365 5.1069-12.365 12.316v27.934c0 7.2095 3.335 12.316 12.365 12.316 9.0302 0 12.365-5.1069 12.365-12.316v-27.934zm-6.9805 27.934c0 3.6196-1.5644 6.187-5.3848 6.187-3.8203 0-5.3848-2.5674-5.3848-6.187v-27.934c0-3.6196 1.5645-6.187 5.3848-6.187 3.8204 0 5.3848 2.5674 5.3848 6.187v27.934z"/><path d="m913.5 628.53c0-7.2095-3.335-12.316-12.365-12.316-9.0303 0-12.365 5.1069-12.365 12.316v27.934c0 7.2095 3.335 12.316 12.365 12.316 9.0303 0 12.365-5.1069 12.365-12.316v-27.934zm-6.9805 27.934c0 3.6196-1.5644 6.187-5.3848 6.187-3.8203 0-5.3848-2.5674-5.3848-6.187v-27.934c0-3.6196 1.5645-6.187 5.3848-6.187s5.3848 2.5674 5.3848 6.187v27.934z"/><path d="m1103.8 628.65c0-7.2095-3.335-12.316-12.365-12.316-9.0302 0-12.365 5.1069-12.365 12.316v27.934c0 7.2095 3.335 12.316 12.365 12.316 9.0303 0 12.365-5.1069 12.365-12.316v-27.934zm-6.9805 27.934c0 3.6196-1.5644 6.187-5.3848 6.187-3.8203 0-5.3847-2.5674-5.3847-6.187v-27.934c0-3.6196 1.5644-6.187 5.3847-6.187 3.8204 0 5.3848 2.5674 5.3848 6.187v27.934z"/><path d="m1190.9 682.4c0-7.2095-3.335-12.316-12.365-12.316-9.0302 0-12.365 5.1069-12.365 12.316v27.934c0 7.2095 3.335 12.316 12.365 12.316 9.0303 0 12.365-5.1069 12.365-12.316v-27.934zm-6.9805 27.934c0 3.6196-1.5644 6.187-5.3848 6.187-3.8203 0-5.3847-2.5674-5.3847-6.187v-27.934c0-3.6196 1.5644-6.187 5.3847-6.187 3.8204 0 5.3848 2.5674 5.3848 6.187v27.934z"/><path d="m1259.9 764.9c0-7.2095-3.335-12.316-12.365-12.316-9.0302 0-12.365 5.1069-12.365 12.316v27.934c0 7.2095 3.335 12.316 12.365 12.316 9.0303 0 12.365-5.1069 12.365-12.316v-27.934zm-6.9805 27.934c0 3.6196-1.5644 6.187-5.3848 6.187-3.8203 0-5.3847-2.5674-5.3847-6.187v-27.934c0-3.6196 1.5644-6.187 5.3847-6.187 3.8204 0 5.3848 2.5674 5.3848 6.187v27.934z"/><path d="m1224.4 764.9c0-7.2095-3.3349-12.316-12.365-12.316-9.0303 0-12.365 5.1069-12.365 12.316v27.934c0 7.2095 3.3349 12.316 12.365 12.316 9.0303 0 12.365-5.1069 12.365-12.316v-27.934zm-6.9804 27.934c0 3.6196-1.5645 6.187-5.3848 6.187s-5.3848-2.5674-5.3848-6.187v-27.934c0-3.6196 1.5645-6.187 5.3848-6.187s5.3848 2.5674 5.3848 6.187v27.934z"/><path d="m1184.1 753.19h5.581v50.512h-7v-40.625h-4.5v-6.2837c2.5 0 5-1.5913 5.919-3.6035z"/><path d="m1296.8 865.81c0-7.209-3.335-12.316-12.365-12.316-9.0303 0-12.365 5.1069-12.365 12.316v27.934c0 7.209 3.335 12.316 12.365 12.316 9.0302 0 12.365-5.1074 12.365-12.316v-27.934zm-6.9805 27.934c0 3.6191-1.5644 6.1875-5.3847 6.1875-3.8204 0-5.3848-2.5684-5.3848-6.1875v-27.934c0-3.6191 1.5644-6.1865 5.3848-6.1865 3.8203 0 5.3847 2.5674 5.3847 6.1865v27.934z"/><path d="m1254.7 854.1h5.5811v50.512h-7v-40.625h-4.5v-6.2837c2.5 0 5-1.5913 5.9189-3.6035z"/><path d="m1231.4 854.1h5.5811v50.512h-7v-40.625h-4.5v-6.2837c2.5 0 5-1.5913 5.9189-3.6035z"/><path d="m1296.4 973.81c0-7.209-3.335-12.316-12.365-12.316-9.0303 0-12.365 5.1074-12.365 12.316v27.934c0 7.209 3.335 12.316 12.365 12.316 9.0302 0 12.365-5.1074 12.365-12.316v-27.934zm-6.9805 27.934c0 3.6191-1.5644 6.1875-5.3847 6.1875-3.8204 0-5.3848-2.5684-5.3848-6.1875v-27.934c0-3.6191 1.5644-6.1865 5.3848-6.1865 3.8203 0 5.3847 2.5674 5.3847 6.1865v27.934z"/><path d="m1222.3 962.1h5.5811v50.512h-7v-40.625h-4.5v-6.2832c2.5 0 5-1.5918 5.9189-3.6035z"/><path d="m1259.4 1074.6c0-7.209-3.335-12.316-12.365-12.316-9.0302 0-12.365 5.1074-12.365 12.316v27.934c0 7.209 3.335 12.316 12.365 12.316 9.0303 0 12.365-5.1074 12.365-12.316v-27.934zm-6.9805 27.934c0 3.6191-1.5644 6.1875-5.3848 6.1875-3.8203 0-5.3847-2.5684-5.3847-6.1875v-27.934c0-3.6191 1.5644-6.1865 5.3847-6.1865 3.8204 0 5.3848 2.5674 5.3848 6.1865v27.934z"/><path d="m1185.8 1062.8h5.5811v50.512h-7v-40.625h-4.5v-6.2832c2.5 0 5-1.5918 5.9189-3.6035z"/><path d="m1189.9 1156.9c0-7.209-3.335-12.316-12.365-12.316-9.0303 0-12.365 5.1074-12.365 12.316v27.934c0 7.209 3.335 12.316 12.365 12.316 9.0302 0 12.365-5.1074 12.365-12.316v-27.934zm-6.9805 27.934c0 3.6191-1.5644 6.1875-5.3847 6.1875s-5.3848-2.5684-5.3848-6.1875v-27.934c0-3.6191 1.5645-6.1865 5.3848-6.1865s5.3847 2.5674 5.3847 6.1865v27.934z"/><path d="m1114.9 1145.2h5.5811v50.512h-7v-40.625h-4.5v-6.2832c2.5 0 5-1.5918 5.9189-3.6035z"/><path d="m1066.8 642.6c-2.0899-2.6455-5.4825-4.3701-9.8331-4.3701-4.3505 0-7.7431 1.7246-9.833 4.3701-2.4785 3.1392-2.5429 5.8428-2.5429 11.093 0 5.25 0.064 7.9536 2.5429 11.093 2.0899 2.6455 5.4825 4.3701 9.833 4.3701 4.3506 0 7.7432-1.7246 9.8331-4.3701 2.4785-3.1392 2.5429-5.8428 2.5429-11.093 0-5.25-0.064-7.9536-2.5429-11.093zm-9.8331 20.623c-5.1425 0-5.4511-5.7002-5.4511-9.5303s0.3086-9.5303 5.4511-9.5303c5.1426 0 5.4512 5.7002 5.4512 9.5303s-0.3086 9.5303-5.4512 9.5303z"/><path d="m1066.2 619.98c-1.9648-2.3799-5.1533-3.9312-9.2432-3.9312-4.0898 0-7.2783 1.5513-9.2431 3.9312-2.3301 2.8232-2.3906 5.2549-2.3906 9.9766 0 4.7222 0.061 7.1538 2.3906 9.9775 1.9648 2.3799 5.1533 3.9307 9.2431 3.9307 4.0899 0 7.2784-1.5508 9.2432-3.9307 2.3301-2.8237 2.3906-5.2554 2.3906-9.9775 0-4.7217-0.061-7.1533-2.3906-9.9766zm-9.2432 17.696c-4.1523 0-4.4023-4.6167-4.4023-7.7192s0.25-7.7192 4.4023-7.7192c4.1524 0 4.4024 4.6167 4.4024 7.7192s-0.25 7.7192-4.4024 7.7192z"/><path d="m826.23 682.28c0-7.2095-3.335-12.316-12.365-12.316-9.0303 0-12.365 5.1069-12.365 12.316v27.934c0 7.2095 3.335 12.316 12.365 12.316 9.0303 0 12.365-5.1069 12.365-12.316v-27.934zm-6.9805 27.934c0 3.6196-1.5644 6.187-5.3848 6.187-3.8203 0-5.3848-2.5674-5.3848-6.187v-27.934c0-3.6196 1.5644-6.187 5.3848-6.187 3.8203 0 5.3848 2.5674 5.3848 6.187v27.934z"/><path d="m780.14 686.68c-6.3008 0-9.8291 2.4863-11.386 6.4385v3.8286l6.2002-9e-3c0.52783-2.4966 2.1396-4.1289 5.186-4.1289 3.8203 0 5.3848 2.5674 5.3848 6.187v11.21c0 3.6196-1.5644 6.187-5.3848 6.187-3.8203 0-5.3848-2.5674-5.3848-6.187v-5.8608h-6.9805v5.8608c0 7.2095 3.335 12.316 12.365 12.316 9.0303 0 12.365-5.1069 12.365-12.316v-11.21c0-7.2095-3.335-12.316-12.365-12.316-6.3008 0-9.8291 2.4863-11.386 6.4385v3.8286"/><path d="m768.75 696.95m6.2002-19.216h15.247v-6.978h-21.447v26.194l6.2002-9e-3v-19.208z"/><path d="m753.54 1073.9c0-7.209-3.335-12.316-12.365-12.316-9.0303 0-12.365 5.1074-12.365 12.316v27.934c0 7.209 3.335 12.316 12.365 12.316 9.0303 0 12.365-5.1074 12.365-12.316v-27.934zm-6.9805 27.934c0 3.6191-1.5644 6.1875-5.3848 6.1875-3.8203 0-5.3848-2.5684-5.3848-6.1875v-27.934c0-3.6192 1.5644-6.1865 5.3848-6.1865 3.8203 0 5.3848 2.5673 5.3848 6.1865v27.934z"/><path d="m710.32 1062.2h5.581v50.512h-7v-40.625h-4.5v-6.2832c2.5 0 5-1.5918 5.919-3.6035z"/><path d="m791.43 1156.1c0-7.209-3.335-12.316-12.365-12.316-9.0303 0-12.365 5.1074-12.365 12.316v27.934c0 7.2089 3.335 12.316 12.365 12.316 9.0303 0 12.365-5.1075 12.365-12.316v-27.934zm-6.9805 27.934c0 3.6191-1.5644 6.1875-5.3848 6.1875-3.8203 0-5.3848-2.5684-5.3848-6.1875v-27.934c0-3.6192 1.5644-6.1866 5.3848-6.1866 3.8203 0 5.3848 2.5674 5.3848 6.1866v27.934z"/><path d="m720.71 972.94c0-7.209-3.335-12.316-12.365-12.316-9.0303 0-12.365 5.1074-12.365 12.316v27.934c0 7.209 3.335 12.316 12.365 12.316 9.0303 0 12.365-5.1074 12.365-12.316v-27.934zm-6.9805 27.934c0 3.6191-1.5644 6.1875-5.3848 6.1875-3.8203 0-5.3848-2.5684-5.3848-6.1875v-27.934c0-3.6191 1.5644-6.1865 5.3848-6.1865 3.8203 0 5.3848 2.5674 5.3848 6.1865v27.934z"/><path d="m721.21 865.78c0-7.209-3.335-12.316-12.365-12.316-9.0303 0-12.365 5.1074-12.365 12.316v27.934c0 7.209 3.335 12.316 12.365 12.316 9.0303 0 12.365-5.1074 12.365-12.316v-27.934zm-6.9805 27.934c0 3.6191-1.5644 6.1875-5.3848 6.1875-3.8203 0-5.3848-2.5684-5.3848-6.1875v-27.934c0-3.6191 1.5644-6.1865 5.3848-6.1865 3.8203 0 5.3848 2.5674 5.3848 6.1865v27.934z"/><path d="m758.71 764.29c0-7.209-3.335-12.316-12.365-12.316-9.0303 0-12.365 5.1074-12.365 12.316v27.934c0 7.209 3.335 12.316 12.365 12.316 9.0303 0 12.365-5.1074 12.365-12.316v-27.934zm-6.9805 27.934c0 3.6191-1.5644 6.1875-5.3848 6.1875-3.8203 0-5.3848-2.5684-5.3848-6.1875v-27.934c0-3.6191 1.5644-6.1865 5.3848-6.1865 3.8203 0 5.3848 2.5674 5.3848 6.1865v27.934z"/><path d="m720.63 786.14v-34.166h-7.5718l-15.279 33.743v6.6572h15.284v12.166h7.5674v-12.166h3.6665v-6.2339h-3.6665zm-7.5674 0h-8.813l8.813-19.462v19.462z"/><path d="m879.48 628.53c0-7.2095-3.335-12.316-12.365-12.316-9.0303 0-12.365 5.1069-12.365 12.316v27.934h6.9805v-27.934c0-3.6196 1.5644-6.187 5.3848-6.187 3.8203 0 5.3848 2.5674 5.3848 6.187h6.9805z"/><path d="m879.48 645.53c0-10.816-7.7891-13.229-12.933-12.033-6.3428 1.4746-11.798 8.1968-11.798 12.598v10.362c0 7.2095 3.335 12.316 12.365 12.316 9.0303 0 12.365-5.1069 12.365-12.316v-10.927zm-6.9805 10.927c0 3.6196-1.5644 6.187-5.3848 6.187-3.8203 0-5.3848-2.5674-5.3848-6.187v-9.792c0-3.583 1.4854-7.3218 5.3848-7.3218 3.8203 0 5.3848 2.5674 5.3848 6.187v10.927z"/><path d="m1131.3 710.21c0 7.2095 3.335 12.316 12.365 12.316 9.0302 0 12.365-5.1069 12.365-12.316v-27.934h-6.9805v27.934c0 3.6196-1.5644 6.187-5.3847 6.187s-5.3848-2.5674-5.3848-6.187h-6.9805z"/><path d="m1131.3 693.2c0 10.816 7.7891 13.229 12.933 12.033 6.3427-1.4746 11.798-8.1968 11.798-12.598v-10.362c0-7.2095-3.335-12.316-12.365-12.316-9.0303 0-12.365 5.1069-12.365 12.316v10.927zm6.9805-10.927c0-3.6196 1.5645-6.187 5.3848-6.187s5.3847 2.5674 5.3847 6.187v9.792c0 3.583-1.4853 7.3218-5.3847 7.3218-3.8203 0-5.3848-2.5674-5.3848-6.187v-10.927z"/><path d="m673.94 880.9c5.1426 0 5.4512 5.7002 5.4512 9.5303s-0.30859 9.5303-5.4512 9.5303-5.4512-5.7002-5.4512-9.5303v-2.6113h-6.9248v2.6113c0 5.25 0.0645 7.9531 2.543 11.093 2.0898 2.6455 5.4824 4.3701 9.833 4.3701s7.7432-1.7246 9.833-4.3701c2.4785-3.1396 2.543-5.8428 2.543-11.093 0-5.25-0.0645-7.9531-2.543-11.093-0.46924-0.59375-1.0137-1.1338-1.6104-1.625 0.36573-0.3291 0.71338-0.67285 1.0205-1.0449 2.3301-2.8232 2.3906-5.2549 2.3906-9.9775 0-4.7202-0.0605-7.1518-2.3906-9.9751-1.9648-2.3799-5.1533-3.9312-9.2432-3.9312-4.0898 0-7.2783 1.5513-9.2432 3.9312-2.3301 2.8232-2.3906 5.2549-2.3906 9.9751v2.1641h7.2314v-2.1641c0-3.1001 0.25-7.7173 4.4024-7.7173 4.1523 0 4.4023 4.6172 4.4023 7.7173 0 3.1035-0.25 7.7197-4.4023 7.7197h-3.3462v6.4902h3.3462z"/><path d="m1152.9 1178.4v-34.167h-7.5713l-15.28 33.746v6.6543h15.284v12.166h7.5674v-12.166h3.666v-6.2334h-3.666zm-7.5674 0h-8.8135l8.8135-19.463v19.463z"/><path d="m1213.9 1090.1c5.1425 0 5.4511 5.7002 5.4511 9.5303s-0.3086 9.5302-5.4511 9.5302c-5.1426 0-5.4512-5.7001-5.4512-9.5302v-2.6114h-6.9248v2.6114c0 5.25 0.064 7.9531 2.543 11.093 2.0898 2.6456 5.4824 4.3702 9.833 4.3702s7.7431-1.7246 9.833-4.3702c2.4785-3.1396 2.5429-5.8427 2.5429-11.093 0-5.25-0.064-7.9532-2.5429-11.093-0.4698-0.5937-1.0137-1.1338-1.6104-1.625 0.3653-0.3291 0.7129-0.6729 1.0205-1.0449 2.3301-2.8233 2.3907-5.2549 2.3907-9.9776 0-4.7197-0.061-7.1513-2.3907-9.9755-1.9648-2.379-5.1533-3.9307-9.2431-3.9307-4.0899 0-7.2784 1.5517-9.2432 3.9307-2.3301 2.8242-2.3906 5.2558-2.3906 9.9755v2.1641h7.2314v-2.1641c0-3.1005 0.25-7.7177 4.4024-7.7177 4.1523 0 4.4023 4.6172 4.4023 7.7177 0 3.1036-0.25 7.7198-4.4023 7.7198h-3.3457v6.4902h3.3457z"/><path d="m677.76 989.2c4.375-4.25 8.5127-8.4375 8.5127-14.36 0-4.7197-0.0654-7.1514-2.582-9.9756-2.1221-2.3789-5.5654-3.9307-9.9824-3.9307s-7.8608 1.5518-9.9824 3.9307c-2.5166 2.8242-2.582 5.2559-2.582 9.9756v2.7305h7.4297v-2.7305c0-3.1006 0.29151-7.7178 5.1348-7.7178s5.1348 4.6172 5.1348 7.7178c0 5.2217-2.897 7.1445-5.458 9.6104-10.924 10.52-12.25 14.789-12.25 27.75h23.75v-7.75h-16.308c0.25-5.375 5.5644-11.735 9.1826-15.25z"/><path d="m1254.6 989.89c4.375-4.25 8.5127-8.4375 8.5127-14.36 0-4.7197-0.065-7.1514-2.582-9.9756-2.1221-2.3789-5.5654-3.9307-9.9824-3.9307s-7.8604 1.5518-9.9824 3.9307c-2.5166 2.8242-2.5821 5.2559-2.5821 9.9756v2.7305h7.4297v-2.7305c0-3.1006 0.292-7.7178 5.1348-7.7178s5.1348 4.6172 5.1348 7.7178c0 5.2217-2.8975 7.1445-5.4581 9.6104-10.924 10.52-12.25 14.789-12.25 27.75h23.75v-7.75h-16.308c0.25-5.375 5.5645-11.735 9.1826-15.25z"/></g><g fill="#ff4000"><path d="m896.63 1110.2c0 1.5459-1.5669 2.7998-3.5 2.7998s-3.5-1.2539-3.5-2.7998v-45.396c0-1.5459 1.5669-2.7998 3.5-2.7998s3.5 1.2539 3.5 2.7998v45.396z"/><path d="m930.08 1110.2c0 1.5459-1.5669 2.7998-3.5 2.7998s-3.5-1.2539-3.5-2.7998v-28.669c0-1.5458 1.5669-2.7998 3.5-2.7998s3.5 1.254 3.5 2.7998v28.669z"/><path d="m982.01 1114c-0.72119 0.7236-2.0396 0.5811-2.9453-0.3213-0.90576-0.9014-1.0552-2.2197-0.33447-2.9453l48.95997-49.049c0.7207-0.7246 2.04-0.5811 2.9453 0.3203 0.9052 0.9023 1.0556 2.2207 0.334 2.9453l-48.95897 49.05z"/><path d="m1042.6 1110.2c0 1.5459-1.5664 2.7998-3.5 2.7998-1.9335 0-3.5009-1.2539-3.5009-2.7998v-45.396c0-1.5459 1.5674-2.7998 3.5009-2.7998 1.9336 0 3.5 1.2539 3.5 2.7998v45.396z"/><path d="m1067 1093.2v17.046c0 1.5459-1.5664 2.7998-3.5 2.7998s-3.501-1.2539-3.501-2.7998v-17.046c-0.206-4.5879-2.1514-6.6934-5.5312-7.418-5.25-1.125-12.083 3.042-12.083 9.292s-3.371-6.5469-0.125-10.875c2.375-3.167 8.6094-7.0527 14.625-5.875 10 1.958 10.115 9.75 10.115 14.876z"/><path d="m950.77 1093.2v17.046c0 1.5459-1.5664 2.7998-3.4995 2.7998s-3.5005-1.2539-3.5005-2.7998v-17.046c-0.20605-4.5879-1.5478-7.168-4.9629-7.7012-5.3394-0.833-8.9629 4.458-8.9629 10.708s-3.3701-8.2461-0.12451-12.574c2.3745-3.167 6.624-5.9199 12.639-4.7422 8.0635 1.5791 8.4116 9.5674 8.4116 14.31z"/><path d="m971.46 1093.2v17.046c0 1.5459-1.5664 2.7998-3.4995 2.7998s-3.5005-1.2539-3.5005-2.7998v-17.046c-0.20605-4.5879-1.5478-7.168-4.9629-7.7012-5.3394-0.833-8.9629 4.458-8.9629 10.708s-4.666-6.7412-1.8188-11.341c3.25-5.25 8.8291-7.0537 14.333-5.9756 8.0635 1.5791 8.4116 9.5674 8.4116 14.31z"/><path d="m892.79 1106.2 24.103-22.905c1.0283-0.9795 0.87109-2.8154-0.35107-4.1015-1.2236-1.2872-3.0488-1.5381-4.0776-0.5586l-19.847 18.86 0.17285 8.7051z"/><path d="m900.7 1093.6 13.585 18.568c0.83984 1.1445 2.6807 1.2255 4.1128 0.1767 1.4331-1.0488 1.915-2.8271 1.0752-3.9726l-14.336-19.597-4.437 4.8242z"/></g></g></svg>
