<?xml version="1.0" encoding="UTF-8"?>
<svg class="svg-content" style="position:absolute" preserveAspectRatio="xMinYMin meet" version="1.1" viewBox="-320 -320 640 640" 
    xmlns="http://www.w3.org/2000/svg">
    <g transform="scale(.97)">
        <g transform="scale(.85)">
            <rect x="-320" y="-320" width="640" height="640" rx="0" ry="0" display="none" fill="#111"/>
        </g>
        <g transform="scale(.85)" fill="#444">
            <circle cx="-264" cy="-264" r="18" display="none"/>
            <circle cx="264" cy="-264" r="18" display="none"/>
            <circle cx="-264" cy="264" r="18" display="none"/>
            <circle cx="264" cy="264" r="18" display="none"/>
        </g>
        <g transform="scale(.85)">
            <circle r="0" display="none" fill="none"/>
        </g>
        <g stroke-width=".85000002">
            <circle r="255" fill="#444"/>
            <circle r="239.7" fill="#eee"/>
            <circle r="208.25" fill="#f8f8f8"/>
        </g>
        <g transform="scale(.85)" fill="#333">
            <path d="m-215.78735 116.02508 0.95432 1.75763-29.00097 15.74624-0.95432-1.75763zm-7.4799-15.14032 0.83097 1.8192-30.01676 13.71107-0.83098-1.81919zm-6.41918-15.619616 0.70369 1.872119-30.88997 11.610775-0.70368-1.872119zm-5.32795-16.024701 0.57304 1.916145-31.6164 9.455311-0.57305-1.916146zm-4.21143-16.353657 0.43969 1.951069-32.19264 7.254924-0.43969-1.951069zm-3.07488-16.604918 0.30424 1.976723-32.61593 5.020072-0.30424-1.976723zm-1.92374-16.777289 0.16736 1.992985-32.88427 2.761369-0.16735-1.992985zm-0.76344-16.8699541 0.0297 1.9997799-32.99636 0.4895469-0.0297-1.9997799zm0.40046-16.8824709-0.10815 1.997073-32.95171-1.7846 0.10815-1.997074zm1.56249-16.81478-0.24547 1.984879-32.7505-4.050271 0.24547-1.984878zm2.71707-16.667205-0.38162 1.963254-32.3937-6.296697 0.38162-1.963254zm3.85875-16.440445-0.51595 1.932303-31.88299-8.513209 0.51595-1.932302zm4.9821-16.135577-0.64783 1.892171-31.22082-10.689275 0.64784-1.892171zm6.08179-15.754051-0.77664 1.843049-30.41032-12.814555 0.77664-1.84305zm7.15256-15.297676-0.90175 1.78517-29.45534-14.87896 0.90176-1.78517zm8.18937-14.76863-1.02258 1.71881-28.36042-16.87267 1.02259-1.71881zm9.18727-14.16942-1.13856 1.64429-27.13075-18.78622 1.13856-1.64429zm10.14152-13.50288-1.24913 1.56195-25.7722-20.61052 1.24913-1.56196zm11.04758-12.7722-1.35375 1.47219-24.29121-22.3369 1.35376-1.4722zm11.90117-11.98084-1.45195 1.37545-22.69481-23.95717 1.45195-1.37544zm12.6982-11.13255-1.54325 1.27216-20.99058-25.46362 1.54325-1.27215zm13.43492-10.23138-1.62722 1.16282-19.18663-26.84908 1.62721-1.16282zm14.1078-9.2816-1.70345 1.04797-17.29154-28.10699 1.70346-1.04797zm14.71366-8.28773-1.7716 0.92814-15.31428-29.23137 1.7716-0.92813zm15.249617-7.25447-1.831325 0.80389-13.264272-30.21686 1.83132-0.8039zm15.713123-6.18676-1.882352 0.67583-11.151252-31.05881 1.882352-0.67583zm16.101977-5.08965-1.924436 0.54456-8.985248-31.75319 1.924436-0.54456zm16.414333-3.96836-1.957377 0.4107-6.776556-32.29672 1.957377-0.4107zm16.648706-2.82821-1.981019 0.27489-4.53567-32.68682 1.981019-0.27489zm16.803981-1.67464-1.995249 0.13777-2.273235-32.92161 1.995249-0.13777zm16.879423-0.5131h-2v-33h2zm16.874672 0.65087-1.995249-0.13777 2.273235-32.92161 1.995249 0.13777zm16.789751 1.81176-1.981019-0.27489 4.53567-32.68682 1.981019 0.27489zm16.625064 2.96402-1.957377-0.4107 6.776556-32.29672 1.957377 0.4107zm16.381392 4.10222-1.924436-0.54456 8.985248-31.75319 1.924436 0.54456zm16.059893 5.22092-1.882352-0.67583 11.151252-31.05881 1.882352 0.67583zm15.662096 6.31482-1.831325-0.80389 13.264277-30.21687 1.83132 0.8039zm15.189892 7.37872-1.7716-0.92814 15.31428-29.23136 1.7716 0.92813zm14.64551 8.40756-1.70345-1.04797 17.29153-28.10699 1.70346 1.04797zm14.03157 9.39645-1.62722-1.16282 19.18664-26.84908 1.62721 1.16282zm13.35095 10.34072-1.54325-1.27216 20.99058-25.46361 1.54325 1.27215zm12.6069 11.23584-1.45195-1.37545 22.69481-23.95716 1.45195 1.37544zm11.80297 12.07758-1.35375-1.47219 24.2912-22.33691 1.35376 1.4722zm10.94296 12.86196-1.24913-1.56195 25.7722-20.61053 1.24913 1.56196zm10.03095 13.58522-1.13856-1.64429 27.13075-18.78622 1.13856 1.64429zm9.07129 14.24394-1.02258-1.71881 28.36041-16.87267 1.02259 1.71881zm8.06854 14.83499-0.90175-1.78517 29.45533-14.87896 0.90176 1.78517zm7.02745 15.355555-0.77664-1.843049 30.41032-12.814556 0.77664 1.84305zm5.95298 15.803173-0.64783-1.892171 31.22081-10.689275 0.64784 1.892171zm4.85022 16.175709-0.51595-1.932303 31.88299-8.513208 0.51595 1.932302zm3.72442 16.471396-0.38162-1.963254 32.3937-6.296697 0.38162 1.963254zm2.58092 16.68883-0.24547-1.984879 32.7505-4.05027 0.24547 1.984878zm1.42517 16.826974-0.10815-1.997073 32.95171-1.784601 0.10815 1.997074zm0.26265 16.8851778 0.0297-1.9997799 32.99637 0.4895469-0.0297 1.9997799zm-0.90114 16.8631592 0.16736-1.992985 32.88426 2.761369-0.16735 1.992985zm-2.06062 16.761027 0.30424-1.976723 32.61593 5.020072-0.30424 1.976723zm-3.21033 16.579264 0.43969-1.951069 32.19264 7.254924-0.43969 1.951069zm-4.34478 16.318733 0.57304-1.916145 31.61641 9.45531-0.57305 1.916146zm-5.4586 15.980675 0.70369-1.872119 30.88996 11.610775-0.70368 1.872119zm-6.54646 15.566697 0.83097-1.8192 30.01677 13.71108-0.83098 1.81919zm-7.60325 15.07875 0.95432-1.75763 29.00097 15.74624-0.95432 1.75763z"/>
            <path d="m-242.681 33.810964 1.06486 6.918531-32.61593 5.020072-1.06486-6.918531zm33.91595-162.085694-3.57905 6.01585-28.36041-16.87268 3.57905-6.01584zm129.26957-103.4961-6.588232 2.36541-11.151252-31.0588 6.588232-2.36542zm165.579192 2.36541-6.588232-2.36541 11.151252-31.05881 6.588232 2.36542zm126.260388 107.14654-3.57905-6.01585 28.36041-16.87267 3.57905 6.01584zm29.27204 162.988375 1.06486-6.918531 32.61593 5.020072-1.06486 6.918531z"/>
            <path d="m-216.98025 113.82804 3.34011 6.15172-32.51623 17.65487-3.34011-6.15172zm-22.85058-164.011939-1.33566 6.87139-36.32021-7.059933 1.33567-6.87139zm86.69235-141.090401-5.40137 4.45255-23.53489-28.55011 5.40137-4.45255zm156.63848-53.7257h-7v-37h7zm155.03985 58.17825-5.40137-4.45255 23.53489-28.55011 5.40137 4.45255zm82.62664 143.509241-1.33566-6.87139 36.3202-7.059933 1.33567 6.87139zm-27.52635 163.292269 3.34011-6.15172 32.51623 17.65487-3.34011 6.15172z"/>
        </g>
        <circle r="210" fill="#eee"/>
        <g transform="scale(.85)" fill="none">
            <circle r="0" display="none"/>
            <circle r="0" display="none"/>
        </g>
        <g transform="matrix(5.0069765,0,0,5.0069765,-846.09048,-1698.2452)" fill="#333" stroke-width=".19972134">
            <circle cx="168.98232" cy="339.17578" r="47.855976" fill-opacity="0"/>
            <g fill="#333" stroke-width=".19972138">
                <path d="m167.07379 299.48102c-0.1152 8e-3 -0.22791 0.0567-0.31102 0.1493-1.09369 1.22124-2.10573 2.66479-2.10573 4.93976 0 1.19097 0.84256 2.16008 1.87814 2.16008s1.87814-0.96911 1.87814-2.16008c0-1.19096-0.84256-2.15988-1.87814-2.15988-0.21452 0-0.41992 0.0438-0.61211 0.12019 0.32663-0.84325 0.85428-1.56496 1.51145-2.29875 0.16603-0.18558 0.15031-0.47044-0.0352-0.63655-0.0927-0.0832-0.21033-0.12057-0.32553-0.11414zm4.26271 4e-3c-0.55874 0-1.08842 0.37229-1.31798 0.92622-0.27115 0.65393-0.39311 1.98553-0.39311 2.72216 0 0.73671 0.12193 2.06846 0.39311 2.72247 0.22957 0.55389 0.75924 0.92599 1.31798 0.92599 0.55872 0 1.0884-0.37229 1.31797-0.92622 0.27114-0.65393 0.3931-1.98553 0.3931-2.72224 0-0.73663-0.12193-2.06816-0.3931-2.72216-0.22953-0.55393-0.75925-0.92622-1.31797-0.92622zm0 0.90153c0.16089 0 0.3856 0.12964 0.4851 0.36964 0.19125 0.46114 0.32444 1.62289 0.32444 2.3771 0 0.75428-0.13316 1.91607-0.32444 2.37713-0.0995 0.24038-0.32421 0.36964-0.4851 0.36964-0.1609 0-0.38564-0.12964-0.48512-0.36964-0.19124-0.4611-0.32443-1.62285-0.32443-2.37713 0-0.75421 0.13315-1.91577 0.32443-2.37687 0.0995-0.24038 0.32421-0.37002 0.48512-0.37002zm-4.8013 2.92449c0.53848 0 0.97659 0.56451 0.97659 1.25839 0 0.69381-0.43811 1.25851-0.97659 1.25851-0.53838 0-0.9766-0.5647-0.9766-1.25851 0-0.69388 0.43822-1.25839 0.9766-1.25839z"/>
                <path d="m189.49782 308.40721c-0.89713 0-1.627 0.84136-1.627 1.87548 0 0.56356 0.21789 1.06851 0.56039 1.41263-0.48026 0.39912-0.79568 1.05839-0.79568 1.80416 0 1.21557 0.8354 2.2046 1.86229 2.2046 1.0269 0 1.86229-0.98903 1.86229-2.2046 0-0.74574-0.31525-1.40504-0.79544-1.80416 0.34246-0.34431 0.56015-0.8491 0.56015-1.41263 0-1.03412-0.72986-1.87548-1.627-1.87548zm4.64176 0c-0.55873 0-1.08819 0.37228-1.31776 0.92617-0.27114 0.65398-0.3931 1.98554-0.3931 2.72225 0 0.73666 0.12193 2.06842 0.3931 2.72243 0.22953 0.55389 0.75903 0.92602 1.31776 0.92602s1.0883-0.37191 1.31798-0.92602c0.27114-0.65397 0.3931-1.98577 0.3931-2.72243 0-0.73671-0.12193-2.0682-0.3931-2.72225-0.22969-0.55389-0.75925-0.92617-1.31798-0.92617zm-4.64176 0.90153c0.39322 0 0.72546 0.44606 0.72546 0.97395 0 0.52788-0.33225 0.97376-0.72546 0.97376s-0.72546-0.44588-0.72546-0.97376c0-0.52789 0.33226-0.97395 0.72546-0.97395zm4.64176 0c0.1609 0 0.38572 0.12964 0.48533 0.37002 0.19113 0.46114 0.3242 1.6227 0.3242 2.3769 0 0.75425-0.13307 1.91607-0.3242 2.37714-0.0996 0.24038-0.32444 0.36964-0.48533 0.36964s-0.38552-0.12964-0.48511-0.36964c-0.19113-0.46114-0.3242-1.62289-0.3242-2.37714 0-0.7542 0.13307-1.9158 0.3242-2.3769 0.0996-0.24038 0.32421-0.37002 0.48511-0.37002zm-4.64176 2.88775c0.52076 0 0.96075 0.59671 0.96075 1.30299 0 0.70632-0.43999 1.30303-0.96075 1.30303s-0.96075-0.59671-0.96075-1.30303c0-0.70628 0.43999-1.30299 0.96075-1.30299z"/>
                <path d="m148.68009 308.4355c-0.55873 0-1.08807 0.37191-1.31775 0.92602-0.27103 0.65394-0.3931 1.98573-0.3931 2.72243 0 0.73667 0.12192 2.06816 0.3931 2.72221 0.22953 0.55389 0.75902 0.92617 1.31775 0.92617 0.55874 0 1.0883-0.37228 1.31798-0.92617 0.27103-0.65397 0.3931-1.98554 0.3931-2.72221 0-0.7367-0.12192-2.06846-0.3931-2.72243-0.22957-0.55393-0.75924-0.92602-1.31798-0.92602zm-4.41071 1e-3c-0.2089-0.0151-0.40819 0.11414-0.46904 0.32315l-1.4047 4.82355c-2e-3 4e-3 -2e-3 0.0113-3e-3 0.0151-4e-3 0.0151-6e-3 0.0302-9e-3 0.0446-2e-3 0.0151-4e-3 0.0302-5e-3 0.048-2e-4 4e-3 -2e-3 8e-3 -2e-3 0.0151 0 8e-3 2e-3 0.0151 3e-3 0.0227 8.5e-4 0.0151 2e-3 0.034 5e-3 0.0506 2e-3 0.0113 5e-3 0.0265 9e-3 0.0389 4e-3 0.0151 8e-3 0.0302 0.0136 0.0442 5e-3 0.0151 0.011 0.0265 0.0174 0.0404 6e-3 0.0113 0.0125 0.0227 0.0197 0.034 8e-3 0.0113 0.0159 0.0227 0.0249 0.034s0.0174 0.0227 0.0272 0.034c0.01 8e-3 0.0196 0.0189 0.0302 0.0302 0.011 8e-3 0.0227 0.0189 0.0348 0.0265 0.0113 8e-3 0.0234 0.0151 0.0359 0.0227 0.0121 8e-3 0.0246 0.0151 0.0374 0.0227 0.0144 8e-3 0.0295 0.0113 0.0449 0.0189 8e-3 2e-3 0.0144 8e-3 0.0227 8e-3 5e-3 2e-3 0.0113 2e-3 0.0166 2e-3 0.0151 4e-3 0.031 8e-3 0.0469 8e-3 0.0147 2e-3 0.0295 4e-3 0.0443 4e-3 6e-3 2.2e-4 0.0122 1e-3 0.0185 2e-3h1.42803v1.12097c0 0.24907 0.20182 0.45074 0.45077 0.45074s0.43676-0.2022 0.45077-0.45074v-1.12097h0.44284c0.24896 0 0.45078-0.20183 0.45078-0.45079 0-0.24907-0.22228-0.54959-0.45078-0.45078h-0.44284v-1.94328c0-0.24908-0.20183-0.45075-0.45077-0.45075-0.24896 0-0.45886 0.20183-0.45077 0.45075v1.94328h-0.8274l1.23676-4.24691c0.0697-0.23886-0.0678-0.48922-0.30683-0.5588-0.0295-8e-3 -0.0598-0.0151-0.0896-0.0151zm4.41071 0.90021c0.1609 0 0.38572 0.12964 0.48533 0.36964 0.19113 0.4611 0.32421 1.62285 0.32421 2.37709 0 0.75428-0.13319 1.91584-0.32421 2.37691-0.0997 0.24038-0.32444 0.37001-0.48533 0.37001s-0.38552-0.12963-0.4851-0.37001c-0.19113-0.4611-0.32421-1.62263-0.32421-2.37691 0-0.75424 0.13315-1.91603 0.32421-2.37709 0.0997-0.24038 0.32421-0.36964 0.4851-0.36964z"/>
                <path d="m131.27384 329.21415c-0.94908 0-1.7212 0.70655-1.7212 1.57508 0 0.24907 0.20183 0.45079 0.45077 0.45079 0.24896 0 0.45078-0.20183 0.45078-0.45079 0-0.37152 0.36767-0.67332 0.81965-0.67332 0.45187 0 0.81923 0.30161 0.81923 0.67332 0 0.4385-0.15496 0.66029-0.33456 0.91696l-0.13712 0.20296-0.0991 0.15836c-0.97486 1.55452-1.89357 3.09963-2.0342 3.89601-8.9e-4 4e-3 -2e-3 8e-3 -2e-3 0.0113-7.8e-4 4e-3 -2e-3 8e-3 -3e-3 0.0151-2e-3 0.0113-1e-3 0.0227-2e-3 0.034s-4e-3 0.0227-4e-3 0.034c0 2e-3 1e-3 8e-3 1e-3 8e-3 3.7e-4 0.0151 3e-3 0.0302 5e-3 0.0495 2e-3 0.0113 3e-3 0.0265 5e-3 0.0389 3e-3 0.0151 9e-3 0.0302 0.0136 0.0446 5e-3 0.0151 9e-3 0.0265 0.0144 0.0401 6e-3 0.0113 0.0129 0.0227 0.0197 0.034 8e-3 0.0113 0.0144 0.0265 0.0227 0.0389 8e-3 0.0113 0.0174 0.0227 0.0268 0.0302 0.01 0.0113 0.0189 0.0227 0.0291 0.0302 0.0102 8e-3 0.0215 0.0151 0.0321 0.0265 0.0113 8e-3 0.0227 0.0189 0.0351 0.0265 0.0117 8e-3 0.0242 0.0151 0.0367 0.0189 0.014 8e-3 0.0272 0.0151 0.042 0.0227 0.0117 4e-3 0.0242 8e-3 0.0367 0.0113 0.0163 4e-3 0.0329 8e-3 0.05 0.0113 3e-3 5.7e-4 6e-3 2e-3 9e-3 2e-3 0.0117 2e-3 0.0227 1e-3 0.034 2e-3 0.0125 1e-3 0.0242 4e-3 0.037 4e-3h2.67712c0.24895 0 0.45076-0.20183 0.45076-0.45075 0-0.24907-0.20182-0.45078-0.45076-0.45078h-2.05709c0.40527-0.93744 1.37479-2.48357 1.73815-3.06316l0.0999-0.15949 0.11093-0.16403c0.21011-0.3001 0.49765-0.71105 0.49765-1.43373-2e-5 -0.86854-0.77181-1.57508-1.72078-1.57508zm4.68697 1.9e-4c-0.55862 0-1.08819 0.37191-1.31776 0.92602-0.27114 0.65401-0.39332 1.98577-0.39332 2.72244 0 0.73666 0.12212 2.06819 0.39332 2.7222 0.22942 0.55393 0.75902 0.92621 1.31776 0.92621 0.55873 0 1.0884-0.3719 1.31797-0.92621 0.27103-0.6539 0.39311-1.98554 0.39311-2.7222 0-0.73667-0.12193-2.06843-0.39311-2.72244-0.22957-0.55392-0.75935-0.92602-1.31797-0.92602zm0 0.90157c0.16078 0 0.3856 0.12964 0.48532 0.36964 0.19106 0.46102 0.32421 1.62281 0.32421 2.37709 0 0.75432-0.13315 1.91592-0.32421 2.37695-0.0997 0.24038-0.32443 0.37001-0.48532 0.37001-0.1609 0-0.38552-0.12963-0.48511-0.36963-0.19113-0.46111-0.32443-1.62282-0.32443-2.3771 0-0.75432 0.13341-1.91611 0.32443-2.37713 0.0997-0.24 0.32432-0.36964 0.48511-0.36964z"/>
                <path d="m135.88621 352.26991c-0.55863 0-1.08864 0.37191-1.31821 0.92603-0.27114 0.65397-0.3931 1.98572-0.3931 2.72243 0 8.7e-4 2.2e-4 2e-3 2.2e-4 2e-3 2.7e-4 0.7372 0.12227 2.06627 0.39311 2.71956 0.22957 0.55389 0.75913 0.92621 1.31798 0.92621 0.55872 0 1.08818-0.37191 1.31775-0.92621 0.27103-0.6539 0.39332-1.98554 0.39332-2.72224 0-0.73667-0.12219-2.06839-0.39332-2.72244-0.22969-0.55389-0.75914-0.92594-1.31775-0.92594zm0 0.90154c0.16078 0 0.38528 0.12963 0.48488 0.36963 0.19117 0.46103 0.32466 1.62282 0.32466 2.3771 0 0.75432-0.13349 1.91588-0.32466 2.37691-0.0996 0.24037-0.32402 0.37001-0.48488 0.37001-0.1609 0-0.38584-0.12964-0.48533-0.36964-0.19125-0.46114-0.32421-1.62281-0.32421-2.37709 0-5.7e-4 -2.2e-4 -1e-3 -2.2e-4 -2e-3 1.9e-4 -0.75432 0.13342-1.91467 0.32443-2.37532 0.0996-0.24038 0.32444-0.36964 0.48533-0.36964z"/>
                <path d="m197.24313 329.09011c-0.24896 0-0.45077 0.20183-0.45077 0.45071v6.39534c0 0.24907 0.20183 0.45078 0.45077 0.45078 0.24896 0 0.45077-0.20183 0.45077-0.45078v-6.39534c0-0.24907-0.20183-0.45071-0.45077-0.45071zm4.06219 0c-0.55873 0-1.08841 0.3719-1.31797 0.92594-0.27115 0.65398-0.39311 1.98573-0.39311 2.72244 0 0.7367 0.12193 2.06819 0.39311 2.72224 0.22956 0.55385 0.75924 0.92621 1.31797 0.92621s1.0883-0.37228 1.31798-0.92621c0.27114-0.65401 0.3931-1.98554 0.3931-2.72224 0-0.73671-0.12192-2.06843-0.3931-2.72244-0.22972-0.55388-0.75925-0.92594-1.31798-0.92594zm4.88091 0c-0.55873 0-1.08841 0.3719-1.31798 0.92594-0.27114 0.65398-0.3931 1.98573-0.3931 2.72244 0 0.7367 0.12193 2.06819 0.3931 2.72224 0.22957 0.55385 0.75925 0.92621 1.31798 0.92621s1.08862-0.37228 1.31819-0.92621c0.27115-0.65401 0.39311-1.98554 0.39311-2.72224 0-0.73671-0.12193-2.06843-0.39311-2.72244-0.22953-0.55388-0.75946-0.92594-1.31819-0.92594zm-4.88091 0.90153c0.1609 0 0.38553 0.12964 0.48511 0.36964 0.19117 0.4611 0.32443 1.62285 0.32443 2.37709 0 0.75425-0.1333 1.91585-0.32443 2.37687-0.0996 0.24038-0.32421 0.37002-0.48511 0.37002-0.16089 0-0.38552-0.12964-0.4851-0.37002-0.19117-0.46106-0.32444-1.62262-0.32444-2.37687 0-0.75424 0.13327-1.91603 0.32444-2.37709 0.0996-0.24038 0.32421-0.36964 0.4851-0.36964zm4.88091 0c0.16089 0 0.38552 0.12964 0.4851 0.36964 0.19117 0.4611 0.32466 1.62285 0.32466 2.37709 0 0.75425-0.13349 1.91585-0.32466 2.37687-0.0996 0.24038-0.32421 0.37002-0.4851 0.37002-0.1609 0-0.38541-0.12964-0.48489-0.37002-0.19117-0.46106-0.32466-1.62262-0.32466-2.37687 0-0.75424 0.13349-1.91603 0.32466-2.37709 0.0995-0.24038 0.32402-0.36964 0.48489-0.36964z"/>
                <path d="m193.78683 351.50724c-0.24896 0-0.45077 0.20183-0.45077 0.45071v6.39534c0 0.24907 0.20183 0.45079 0.45077 0.45079 0.24896 0 0.45077-0.20183 0.45077-0.45079v-6.39534c0-0.24907-0.20183-0.45071-0.45077-0.45071zm4.54016 0c-0.94908 0-1.72142 0.70628-1.72142 1.57478 0 0.24907 0.20182 0.45078 0.45077 0.45078 0.24896 0 0.45077-0.20182 0.45077-0.45078 0-0.37153 0.36794-0.67325 0.81988-0.67325 0.45187 0 0.81923 0.30161 0.81923 0.67325 0 0.43846-0.15496 0.66032-0.33457 0.91695l-0.13689 0.20296-0.0992 0.15837c-0.97485 1.55455-1.89356 3.0997-2.03419 3.89605-8.5e-4 4e-3 -2e-3 8e-3 -3e-3 0.0113-8.5e-4 4e-3 -2e-3 8e-3 -3e-3 0.0151-2e-3 0.0113-1e-3 0.0227-2e-3 0.034s-4e-3 0.0227-4e-3 0.034c0 2e-3 1e-3 8e-3 1e-3 8e-3 2.8e-4 0.0151 3e-3 0.0302 5e-3 0.0495 2e-3 0.0113 3e-3 0.0265 5e-3 0.0389 3e-3 0.0151 9e-3 0.0302 0.0136 0.0446 5e-3 0.0151 9e-3 0.0265 0.0144 0.0401 6e-3 0.0113 0.0128 0.0227 0.0196 0.034 8e-3 0.0113 0.014 0.0265 0.0227 0.0389 8e-3 0.0114 0.0174 0.0227 0.0268 0.0302 0.01 0.0113 0.0189 0.0227 0.0291 0.0302 0.01 8e-3 0.0204 0.0151 0.0306 0.0265 0.0121 8e-3 0.0242 0.0189 0.0374 0.0265 0.0102 8e-3 0.0208 0.0113 0.0317 0.0151 0.0155 8e-3 0.031 0.0151 0.0476 0.0227 0.0102 4e-3 0.0215 8e-3 0.0321 8e-3 0.0174 4e-3 0.0348 0.0113 0.0533 0.0151 3e-3 5.7e-4 6e-3 2e-3 9e-3 2e-3 0.011 2e-3 0.0215 8e-4 0.0321 2e-3 0.0128 1e-3 0.0253 4e-3 0.0386 4e-3h2.67711c0.24896 0 0.45077-0.20182 0.45077-0.45078 0-0.24907-0.20183-0.45075-0.45077-0.45075h-2.05709c0.4052-0.93743 1.37468-2.48368 1.73816-3.06319l0.0999-0.1595 0.1107-0.16365c0.21007-0.30009 0.49787-0.71115 0.49787-1.43399 0-0.8685-0.77179-1.57482-1.72076-1.57482zm4.90754 0c-0.55862 0-1.08808 0.37191-1.31776 0.92595-0.27114 0.65416-0.3931 1.98573-0.3931 2.72243 0 0.73671 0.12193 2.06827 0.3931 2.72224 0.22953 0.55397 0.75903 0.92622 1.31776 0.92622s1.08841-0.37229 1.31798-0.92622c0.27114-0.65397 0.3931-1.98553 0.3931-2.72224 0-0.7367-0.12193-2.06827-0.3931-2.72243-0.22968-0.55378-0.75936-0.92595-1.31798-0.92595zm0 0.90153c0.18222-0.0903 0.38572 0.12964 0.48533 0.36964 0.19113 0.4611 0.3242 1.62278 0.3242 2.3771 0 0.75428-0.13307 1.91603-0.3242 2.37687-0.0995 0.24038-0.32444 0.37001-0.48533 0.37001s-0.38564-0.12963-0.48511-0.36963c-0.19113-0.46111-0.3242-1.62282-0.3242-2.37714 0-0.75428 0.13307-1.91599 0.3242-2.37709 0.0996-0.24 0.32421-0.36964 0.48511-0.36964 0 0-3e-5 -1.2e-4 0-1.2e-4z"/>
                <path d="m173.08332 365.65968c-0.1753 0.0113-0.33479 0.12586-0.39553 0.30274l-2.65135 7.69017c-0.0812 0.23547 0.0438 0.49195 0.2793 0.57294 0.23539 0.0813 0.49193-0.0438 0.57293-0.27893l2.65136-7.69017c0.0812-0.23546-0.0438-0.49186-0.27931-0.5729-0.0588-0.0189-0.11897-0.0265-0.17741-0.0227zm-12.08569 1.34083c-0.24896 0-0.45078 0.20183-0.45078 0.45078v6.34844c0 0.24907 0.20183 0.45078 0.45078 0.45078s0.43226-0.20258 0.45076-0.45078v-1.19758l0.43581-0.37077 1.05693 1.79693c0.12612 0.2143 0.40235 0.28611 0.61695 0.15988 0.2146-0.12624 0.28633-0.4026 0.16002-0.6172l-1.13705-1.93315 1.13683-0.96801c0.18962-0.16177 0.2123-0.44595 0.0509-0.63546-0.16131-0.18973-0.44592-0.21241-0.63543-0.051l-1.68489 1.43464v-3.96673c0-0.24907-0.20182-0.45075-0.45077-0.45075zm13.85203 0c-0.24896 0-0.45077 0.20183-0.45077 0.45078v6.34844c0 0.24907 0.20182 0.45078 0.45077 0.45078 0.24896 0 0.45077-0.20182 0.45077-0.45078v-1.88761c0-0.54981 0.33543-1.01424 0.7325-1.01424s0.7325 0.46443 0.7325 1.01424v1.88761c0 0.24907 0.20183 0.45078 0.45078 0.45078s0.45076-0.20182 0.45076-0.45078v-1.88761c0-1.05638-0.73305-1.91577-1.63404-1.91577-0.2635 0-0.51187 0.0748-0.7325 0.20523v-2.75063c0-0.24907-0.20183-0.45078-0.45077-0.45078zm-9.62011 3.00333c-0.24896 0-0.45077 0.20182-0.45077 0.45078v3.34511c0 0.24907 0.20182 0.45078 0.45077 0.45078s0.45077-0.20182 0.45077-0.45078v-2.45704c0-0.27666 0.0861-0.55184 0.36691-0.6068 0.32402-0.0631 0.49149 0.19616 0.49149 0.53726v2.52658c0 0.24907 0.20183 0.45078 0.45077 0.45078 0.24896 0 0.45077-0.20182 0.45077-0.45078v-2.20717c0-0.0775-1e-3 -0.15118-4e-3 -0.22186l1e-3 4e-3c0-0.27666 0.0861-0.58382 0.36692-0.6387 0.32402-0.0631 0.49149 0.19616 0.49149 0.53722v2.52658c0 0.24907 0.20182 0.45078 0.45077 0.45078s0.45077-0.20182 0.45077-0.45078v-2.20721c0-1.2703-0.37175-1.6032-1.09722-1.55391-0.3456 0.0227-0.60922 0.23093-0.82912 0.46397-0.17522-0.38018-0.48522-0.49402-0.92774-0.46397-0.2688 0.0189-0.48737 0.14891-0.67505 0.31483-0.046-0.20031-0.22435-0.3496-0.43844-0.3496z"/>
            </g>
        </g>
        <path d="m-6.0837742-11.204918 12.1675484 22.409836-152.035204 76.261527-30.88349 9.03068-0.40558-0.746988 24.39412-20.982601z" fill="#e20" stroke-width=".85000002"/>
    </g>
</svg>
