<?xml version="1.0" encoding="UTF-8"?>
<svg class="svg-content" style="position:absolute" preserveAspectRatio="xMinYMin meet" version="1.1" viewBox="-320 -320 640 640" xmlns="http://www.w3.org/2000/svg">
 <g>
  <rect x="-272" y="-272" width="544" height="544" rx="45" ry="45" fill="#111"/>
 </g>
 <g fill="#444">
  <ellipse cx="-224.4" cy="-224.4" rx="15.3" ry="15.3"/>
  <ellipse cx="224.4" cy="-224.4" rx="15.3" ry="15.3"/>
  <ellipse cx="-224.4" cy="224.4" rx="15.3" ry="15.3"/>
  <ellipse cx="224.4" cy="224.4" rx="15.3" ry="15.3"/>
 </g>
 <g>
  <ellipse cy="3.815e-6" rx="255" ry="255" fill="#666"/>
  <g>
   <ellipse cy="3.815e-6" rx="239.7" ry="239.7" fill="#ffffe0"/>
   <ellipse cy="3.815e-6" rx="208.2" ry="208.2" fill="#e4e4bc"/>
   <circle cy="3.815e-6" r="202.2" fill="#ffffe0"/>
  </g>
 </g>
 <g fill="none">
  <path d="m0 0z" display="none" stroke-width="0px"/>
 </g>
 <g>
  <g transform="scale(.85)" stroke-width="1.176">
   <g fill="#333">
    <path d="m-201.1 139.9 0.8604 1.229-15.56 10.9-0.8604-1.229zm-9.634-14.98 0.7688 1.288-16.31 9.738-0.7688-1.288zm-8.52-15.64 0.6732 1.34-16.98 8.527-0.6732-1.34zm-7.361-16.22 0.574 1.386-17.55 7.271-0.574-1.386zm-6.163-16.71 0.4718 1.424-18.04 5.976-0.4718-1.424zm-4.932-17.12 0.3671 1.454-18.42 4.65-0.3671-1.454zm-3.676-17.43 0.2605 1.477-18.71 3.299-0.2605-1.477zm-2.399-17.65 0.1524 1.492-18.9 1.931-0.1524-1.492zm-1.111-17.78 0.0436 1.499-18.99 0.5526-0.0436-1.499zm0.1841-17.81-0.0654 1.499-18.98-0.8288 0.0654-1.499zm1.478-17.75-0.1741 1.49-18.87-2.206 0.1741-1.49zm2.764-17.6-0.2819 1.473-18.66-3.571 0.2819-1.473zm4.035-17.35-0.3882 1.449-18.35-4.918 0.3882-1.449zm5.285-17.01-0.4925 1.417-17.95-6.238 0.4925-1.417zm6.507-16.58-0.5941 1.377-17.45-7.526 0.5941-1.377zm7.695-16.07-0.6926 1.331-16.85-8.773 0.6926-1.331zm8.841-15.46-0.7875 1.277-16.17-9.975 0.7875-1.277zm9.942-14.78-0.8782 1.216-15.4-11.12 0.8781-1.216zm10.99-14.02-0.9642 1.149-14.55-12.21 0.9642-1.149zm11.98-13.18-1.045 1.076-13.63-13.24 1.045-1.076zm12.91-12.28-1.121 0.9972-12.63-14.19 1.121-0.9972zm13.76-11.31-1.19 0.9131-11.57-15.07 1.19-0.9131zm14.55-10.28-1.253 0.8243-10.44-15.87 1.253-0.8243zm15.26-9.194-1.31 0.731-9.26-16.59 1.31-0.731zm15.88-8.061-1.359 0.6339-8.03-17.22 1.359-0.6339zm16.43-6.886-1.402 0.5335-6.757-17.76 1.402-0.5335zm16.89-5.674-1.437 0.4302-5.449-18.2 1.437-0.4302zm17.25-4.432-1.464 0.3247-4.112-18.55 1.464-0.3247zm17.53-3.167-1.484 0.2174-2.754-18.8 1.484-0.2174zm17.71-1.885-1.496 0.109-1.381-18.95 1.496-0.109zm17.8-0.5931h-1.5v-19h1.5zm17.8 0.702-1.496-0.109 1.381-18.95 1.496 0.109zm17.7 1.993-1.484-0.2174 2.754-18.8 1.484 0.2174zm17.51 3.274-1.464-0.3247 4.112-18.55 1.464 0.3247zm17.23 4.538-1.437-0.4302 5.449-18.2 1.437 0.4302zm16.85 5.777-1.402-0.5335 6.757-17.76 1.402 0.5335zm16.39 6.986-1.359-0.6339 8.03-17.22 1.359 0.6339zm15.83 8.159-1.31-0.731 9.26-16.59 1.31 0.731zm15.2 9.288-1.253-0.8243 10.44-15.87 1.253 0.8243zm14.49 10.37-1.19-0.9131 11.57-15.07 1.19 0.9131zm13.69 11.39-1.121-0.9972 12.63-14.19 1.121 0.9972zm12.83 12.36-1.045-1.076 13.63-13.24 1.045 1.076zm11.9 13.26-0.9642-1.149 14.55-12.21 0.9642 1.149zm10.9 14.09-0.8782-1.216 15.4-11.12 0.8781 1.216zm9.851 14.84-0.7875-1.277 16.17-9.975 0.7875 1.277zm8.747 15.52-0.6926-1.331 16.85-8.773 0.6926 1.331zm7.596 16.11-0.5941-1.377 17.45-7.526 0.5941 1.377zm6.405 16.62-0.4925-1.417 17.95-6.238 0.4925 1.417zm5.181 17.04-0.3882-1.449 18.35-4.918 0.3882 1.449zm3.929 17.37-0.2819-1.473 18.66-3.571 0.2819 1.473zm2.656 17.61-0.1741-1.49 18.87-2.206 0.1741 1.49zm1.369 17.76-0.0654-1.499 18.98-0.8288 0.0654 1.499zm0.075 17.81 0.0436-1.499 18.99 0.5526-0.0436 1.499zm-1.219 17.77 0.1524-1.492 18.9 1.931-0.1524 1.492zm-2.507 17.64 0.2605-1.477 18.71 3.299-0.2605 1.477zm-3.782 17.41 0.3671-1.454 18.42 4.65-0.3671 1.454zm-5.037 17.09 0.4718-1.424 18.04 5.976-0.4718 1.424zm-6.265 16.67 0.574-1.386 17.55 7.271-0.574 1.386zm-7.46 16.18 0.6732-1.34 16.98 8.527-0.6732 1.34zm-8.616 15.59 0.7688-1.288 16.31 9.738-0.7688 1.288zm-9.726 14.92 0.8604-1.229 15.56 10.9-0.8604 1.229z"/>
    <path d="m-237.9 58.51 0.7342 2.909-35.87 9.056-0.7342-2.909zm21.29-173-1.385 2.661-32.82-17.08 1.385-2.661zm130.9-115.1-2.804 1.067-13.16-34.58 2.804-1.067zm174.3 1.067-2.804-1.067 13.16-34.58 2.804 1.067zm129.5 116.7-1.385-2.661 32.82-17.08 1.385 2.661zm19.17 173.2 0.7342-2.909 35.87 9.056-0.7342 2.909z"/>
    <path d="m-202.4 138.1 3.441 4.915-30.31 21.22-3.441-4.915zm-40.58-169.5-0.6966 5.959-36.75-4.295 0.6966-5.959zm82.36-153.6-4.482 3.989-24.6-27.64 4.482-3.989zm163.6-59.98h-6v-37h6zm162.1 63.97-4.482-3.989 24.6-27.64 4.482 3.989zm78.58 155.6-0.6966-5.959 36.75-4.295 0.6966 5.959zm-44.72 168.4 3.441-4.915 30.31 21.22-3.441 4.915z"/>
   </g>
   <path d="m-244.5 15.03 0.1308 1.996-36.5 8.906-0.981-14.97zm10.64-87.95-0.5875 1.912-37.28-4.656 4.406-14.34z" fill="#f00"/>
   <path d="m-86.2-229.3-1.869 0.7113-19.23-32.27 14.02-5.335zm214.2 20.4-1.71-1.038 13.64-35 12.82 7.782z" fill="#f00"/>
  </g>
 </g>
 <g fill="#333" stroke="#333">
  <g transform="matrix(1.176 0 0 1.318 -37.36 565.3)" stroke-width=".7315">
   <g stroke-linecap="round" stroke-linejoin="round">
    <g stroke-width=".6584">
     <rect x="-8.82" y="-326.8" width="6.949" height="29.13"/>
     <rect x="12.02" y="-319.5" width="6.949" height="21.81"/>
     <rect x="58.32" y="-326.5" width="6.949" height="29.13"/>
     <rect transform="rotate(19.79)" x="-60.92" y="-325.6" width="4.952" height="30.49"/>
    </g>
    <rect transform="matrix(1 0 .3813 .9245 0 0)" x="126.8" y="-337.6" width="6.949" height="15.57" stroke-width=".6848"/>
    <rect transform="matrix(-1 0 -.6656 .7463 0 0)" x="273.9" y="-427.9" width="6.949" height="19.29" stroke-width=".7621"/>
    <rect transform="matrix(1 0 .3813 .9245 0 0)" x="130.6" y="-339.1" width="3.202" height="7.176" stroke-width=".6848"/>
   </g>
   <path d="m23.39-310.1 6.949-3.515-1e-6 15.95h-6.949z" stroke-linecap="round" stroke-linejoin="round" stroke-width=".6584"/>
   <path d="m23.39-310.1c0-5.072-2.961-3.797-4.428-2.523-1.625 1.559-2.864-0.7559 0-4.11 3.078-3.122 5.051-3.365 7.389-2.64 2.216 0.6871 3.988 3.257 3.988 5.758 0 2.596-6.949 3.515-6.949 3.515z" fill-rule="evenodd" stroke-width=".1936px"/>
   <g transform="translate(11.38)">
    <path d="m23.39-310.1 6.949-3.515-1e-6 15.95h-6.949z" stroke-linecap="round" stroke-linejoin="round" stroke-width=".6584"/>
    <path d="m23.39-310.1c0-5.072-2.961-3.797-4.428-2.523-1.625 1.559-2.864-0.7559 0-4.11 3.078-3.122 5.051-3.365 7.389-2.64 2.216 0.6871 3.988 3.257 3.988 5.758 0 2.596-6.949 3.515-6.949 3.515z" fill-rule="evenodd" stroke-width=".1936px"/>
   </g>
   <g transform="translate(46.93 .2646)">
    <path d="m23.39-310.1 6.949-3.515-1e-6 15.95h-6.949z" stroke-linecap="round" stroke-linejoin="round" stroke-width=".6584"/>
    <path d="m23.39-310.1c0-4.236-4.06-3.596-5.052-0.3885-1.625 1.559-2.864-2.182 0-5.536 2.196-2.989 5.674-4.074 8.013-3.349 2.216 0.6871 3.988 3.257 3.988 5.758 0 2.596-6.949 3.515-6.949 3.515z" fill-rule="evenodd" stroke-width=".1936px"/>
   </g>
  </g>
  <g stroke-width="1.821">
   <path d="m-6.826-180.1c-0.5293 0.0287-1.047 0.2569-1.429 0.677-5.026 5.532-9.676 12.07-9.676 22.38 0 5.395 3.872 9.786 8.63 9.786 4.759 0 8.63-4.39 8.63-9.786s-3.872-9.785-8.63-9.785c-0.9857 0-1.93 0.1978-2.813 0.5444 1.501-3.82 3.925-7.089 6.945-10.41 0.7631-0.8401 0.6908-2.131-0.1618-2.884-0.426-0.3762-0.9666-0.5463-1.496-0.5175zm17.56 0.0219c-2.567 0-5.001 1.686-6.056 4.196-1.246 2.963-1.806 8.995-1.806 12.33s0.5603 9.37 1.806 12.33c1.055 2.509 3.489 4.195 6.056 4.195 2.567 0 5.001-1.686 6.056-4.196 1.246-2.963 1.806-8.995 1.806-12.33 0-3.337-0.5603-9.369-1.806-12.33-1.055-2.509-3.489-4.196-6.056-4.196zm0 4.084c0.7393 0 1.772 0.5868 2.229 1.675 0.8789 2.089 1.491 7.352 1.491 10.77s-0.6119 8.68-1.491 10.77c-0.4571 1.089-1.49 1.675-2.229 1.675-0.7393 0-1.772-0.5868-2.229-1.675-0.8789-2.089-1.491-7.352-1.491-10.77s0.6119-8.679 1.491-10.77c0.4571-1.089 1.49-1.676 2.229-1.676zm-20.03 13.25c2.474 0 4.487 2.557 4.487 5.7s-2.013 5.701-4.487 5.701c-2.474 0-4.487-2.558-4.487-5.701s2.014-5.7 4.487-5.7z"/>
   <path d="m98.11-139.8c-4.122 0-7.476 3.812-7.476 8.496 0 2.553 1.001 4.841 2.575 6.399-2.207 1.808-3.656 4.795-3.656 8.173 0 5.507 3.839 9.987 8.557 9.987 4.719 0 8.557-4.48 8.557-9.987 0-3.378-1.449-6.365-3.655-8.173 1.574-1.559 2.574-3.846 2.574-6.399 0-4.685-3.354-8.496-7.476-8.496zm19.59 0c-2.567 0-5 1.686-6.055 4.196-1.246 2.963-1.806 8.995-1.806 12.33 0 3.337 0.5603 9.37 1.806 12.33 1.055 2.509 3.488 4.195 6.055 4.195 2.567 0 5.001-1.685 6.056-4.195 1.246-2.963 1.806-8.996 1.806-12.33 0-3.337-0.5603-9.369-1.806-12.33-1.055-2.509-3.489-4.196-6.056-4.196zm-19.59 4.084c1.807 0 3.334 2.021 3.334 4.412 0 2.391-1.527 4.411-3.334 4.411-1.807 0-3.333-2.02-3.333-4.411 0-2.392 1.527-4.412 3.333-4.412zm19.59 0c0.7393 0 1.772 0.5878 2.23 1.676 0.8784 2.089 1.49 7.351 1.49 10.77 0 3.417-0.6114 8.68-1.49 10.77-0.4576 1.089-1.491 1.675-2.23 1.675-0.7393 0-1.771-0.5868-2.229-1.675-0.8784-2.089-1.49-7.352-1.49-10.77 0-3.417 0.6114-8.679 1.49-10.77 0.4576-1.089 1.49-1.676 2.229-1.676zm-19.59 13.08c2.393 0 4.415 2.703 4.415 5.903 0 3.2-2.022 5.903-4.415 5.903-2.393 0-4.415-2.703-4.415-5.903 0-3.2 2.022-5.903 4.415-5.903z"/>
   <path d="m-98.05-140.2c-2.567 0-5 1.685-6.055 4.195-1.246 2.963-1.806 8.996-1.806 12.33s0.5603 9.369 1.806 12.33c1.055 2.509 3.488 4.196 6.055 4.196 2.567 0 5.001-1.686 6.056-4.196 1.246-2.963 1.806-8.995 1.806-12.33s-0.5603-9.37-1.806-12.33c-1.055-2.509-3.489-4.195-6.056-4.195zm-19.11 6e-3c-0.96-0.0774-1.876 0.5173-2.155 1.465l-6.455 21.85c-7e-3 0.0258-7e-3 0.0519-0.0142 0.0778-0.0167 0.0664-0.0284 0.1337-0.0384 0.2024-0.0108 0.0729-0.0196 0.145-0.0223 0.2174-8.5e-4 0.0251-8e-3 0.0485-8e-3 0.0738 0 0.036 9e-3 0.0692 0.0111 0.1047 4e-3 0.0774 0.0104 0.1536 0.0232 0.2293 0.01 0.0591 0.0235 0.1162 0.0384 0.1735 0.0179 0.0683 0.0379 0.1347 0.0627 0.2004 0.0238 0.0631 0.0512 0.1235 0.0809 0.1835 0.0278 0.0563 0.057 0.111 0.09 0.1645 0.0357 0.0579 0.0741 0.1127 0.1153 0.1665 0.0397 0.0521 0.0807 0.1023 0.1254 0.1506 0.0437 0.0471 0.0896 0.0907 0.1376 0.1336 0.0512 0.0459 0.1036 0.0897 0.1598 0.1306 0.0531 0.0388 0.108 0.074 0.1649 0.1077 0.0562 0.0332 0.1129 0.0646 0.1729 0.0927 0.0669 0.0316 0.1357 0.0574 0.2063 0.0818 0.0354 0.0122 0.0666 0.0304 0.1032 0.0409 0.0256 7e-3 0.0513 8e-3 0.0769 0.0139 0.0705 0.0174 0.1423 0.0287 0.2154 0.0389 0.0681 9e-3 0.1356 0.0182 0.2033 0.021 0.0285 8.5e-4 0.0552 8e-3 0.0839 8e-3h6.562v5.078c0 1.128 0.9274 2.042 2.071 2.042 1.144 0 2.071-0.9143 2.071-2.042v-5.078h2.035c1.144 0 2.071-0.9144 2.071-2.042 0-1.128-0.9274-2.042-2.071-2.042h-2.035v-8.803c0-1.128-0.9274-2.042-2.071-2.042-1.144 0-2.071 0.9143-2.071 2.042v8.803h-3.802l5.683-19.24c0.3201-1.083-0.3115-2.216-1.41-2.532-0.1372-0.0395-0.2745-0.0637-0.4116-0.0748zm19.11 4.078c0.7393 0 1.772 0.5868 2.23 1.675 0.8784 2.089 1.49 7.352 1.49 10.77 0 3.417-0.6119 8.679-1.49 10.77-0.4582 1.089-1.491 1.676-2.23 1.676-0.7393 0-1.771-0.5878-2.229-1.676-0.8784-2.089-1.49-7.351-1.49-10.77 0-3.417 0.6119-8.68 1.49-10.77 0.4582-1.089 1.49-1.675 2.229-1.675z"/>
   <path d="m-173.9-32.08c-4.361 0-7.909 3.201-7.909 7.135 0 1.128 0.9274 2.042 2.071 2.042 1.144 0 2.071-0.9143 2.071-2.042 0-1.683 1.689-3.05 3.766-3.05 2.076 0 3.764 1.368 3.764 3.05 0 1.987-0.712 2.991-1.537 4.154l-0.6301 0.9193-0.4551 0.7179c-4.479 7.042-8.701 14.04-9.347 17.65-4e-3 0.01752-7e-3 0.03512-0.0111 0.05282-3e-3 0.02026-0.01 0.04371-0.0131 0.06378-8e-3 0.05228-4e-3 0.1036-9e-3 0.1555-4e-3 0.05583-0.0172 0.1095-0.0172 0.1665 0 0.01575 4e-3 0.03026 5e-3 0.04583 2e-3 0.07635 0.0131 0.1498 0.0232 0.2243 8e-3 0.05892 0.0123 0.1183 0.0253 0.1755 0.0158 0.06928 0.0399 0.1347 0.0627 0.2014 0.021 0.0614 0.0392 0.1238 0.0658 0.1825 0.0257 0.05689 0.0592 0.1093 0.09 0.1635 0.0338 0.05954 0.0656 0.1199 0.1052 0.1755 0.0374 0.05264 0.0811 0.09957 0.1234 0.1486 0.0439 0.05096 0.0857 0.1031 0.1345 0.1496 0.046 0.04379 0.0976 0.08112 0.1477 0.1206 0.0532 0.04211 0.1045 0.08582 0.1618 0.1226 0.0536 0.03433 0.1119 0.06123 0.1689 0.09075 0.0636 0.033 0.1259 0.06733 0.1932 0.09372 0.0539 0.02115 0.1116 0.03415 0.1679 0.05087 0.0757 0.02264 0.1504 0.04582 0.2296 0.05981 0.0144 0.0026 0.027 0.0088 0.0415 0.01097 0.0525 8e-3 0.1036 0.0044 0.1558 9e-3 0.057 0.0044 0.1118 0.0169 0.1699 0.0169h12.3c1.144 0 2.071-0.9143 2.071-2.042 0-1.128-0.9274-2.042-2.071-2.042h-9.452c1.862-4.247 6.317-11.25 7.987-13.88l0.4592-0.7229 0.5097-0.7428c0.9654-1.36 2.287-3.221 2.287-6.495-8e-5 -3.935-3.546-7.135-7.907-7.135zm19.74 8.5e-4c-2.567 0-5 1.686-6.055 4.195-1.246 2.963-1.807 8.996-1.807 12.33 0 3.337 0.5613 9.369 1.807 12.33 1.054 2.509 3.488 4.196 6.055 4.196s5.001-1.686 6.056-4.196c1.246-2.962 1.806-8.995 1.806-12.33 0-3.337-0.5603-9.37-1.806-12.33-1.055-2.509-3.489-4.195-6.056-4.195zm0 4.084c0.7388 0 1.772 0.5868 2.23 1.675 0.8779 2.088 1.49 7.352 1.49 10.77 0 3.417-0.6119 8.679-1.49 10.77-0.4582 1.088-1.491 1.676-2.23 1.676s-1.771-0.5873-2.229-1.675c-0.8784-2.089-1.491-7.352-1.491-10.77 0-3.417 0.6129-8.68 1.491-10.77 0.4582-1.088 1.49-1.675 2.229-1.675z"/>
   <path d="m-139.2 85.84c-2.567 0-5.002 1.686-6.057 4.195-1.246 2.963-1.806 8.996-1.806 12.33 0 4e-3 8.5e-4 8e-3 8.5e-4 0.012 8.5e-4 3.34 0.5617 9.361 1.806 12.32 1.055 2.509 3.488 4.196 6.056 4.196 2.567 0 5-1.686 6.055-4.196 1.246-2.962 1.807-8.995 1.807-12.33 0-3.337-0.5613-9.37-1.807-12.33-1.055-2.509-3.488-4.195-6.055-4.195zm0 4.084c0.7388 0 1.77 0.5868 2.228 1.675 0.8784 2.088 1.492 7.352 1.492 10.77 0 3.417-0.6134 8.679-1.492 10.77-0.4576 1.088-1.489 1.676-2.228 1.676-0.7393 0-1.773-0.5873-2.23-1.675-0.8789-2.089-1.49-7.352-1.49-10.77 0-3e-3 -8.5e-4 -5e-3 -8.5e-4 -8e-3 8.5e-4 -3.417 0.613-8.674 1.491-10.76 0.4576-1.088 1.491-1.675 2.23-1.675z"/>
   <path d="m142.1-36.34c-1.144 0-2.071 0.9143-2.071 2.042v28.97c0 1.128 0.9274 2.042 2.071 2.042 1.144 0 2.071-0.9144 2.071-2.042v-28.97c0-1.128-0.9274-2.042-2.071-2.042zm16.64 0c-2.567 0-5.001 1.685-6.056 4.195-1.246 2.963-1.806 8.996-1.806 12.33 0 3.337 0.5603 9.369 1.806 12.33 1.055 2.509 3.489 4.196 6.056 4.196 2.567 0 5.001-1.686 6.056-4.196 1.246-2.963 1.806-8.995 1.806-12.33 0-3.337-0.5603-9.37-1.806-12.33-1.055-2.509-3.489-4.195-6.056-4.195zm19.82 0c-2.567 0-5.001 1.685-6.056 4.195-1.246 2.963-1.806 8.996-1.806 12.33 0 3.337 0.5603 9.369 1.806 12.33 1.055 2.509 3.489 4.196 6.056 4.196 2.567 0 5.002-1.686 6.057-4.196 1.246-2.963 1.806-8.995 1.806-12.33 0-3.337-0.5603-9.37-1.806-12.33-1.055-2.509-3.49-4.195-6.057-4.195zm-19.82 4.084c0.7393 0 1.771 0.5868 2.229 1.675 0.8784 2.089 1.491 7.352 1.491 10.77 0 3.417-0.6124 8.679-1.491 10.77-0.4576 1.089-1.49 1.676-2.229 1.676-0.7393 0-1.771-0.5878-2.229-1.676-0.8784-2.089-1.491-7.351-1.491-10.77 0-3.417 0.6124-8.68 1.491-10.77 0.4576-1.089 1.49-1.675 2.229-1.675zm19.82 0c0.7393 0 1.771 0.5868 2.229 1.675 0.8784 2.089 1.492 7.352 1.492 10.77 0 3.417-0.6134 8.679-1.492 10.77-0.4576 1.089-1.49 1.676-2.229 1.676-0.7393 0-1.771-0.5878-2.228-1.676-0.8784-2.089-1.492-7.351-1.492-10.77 0-3.417 0.6134-8.68 1.492-10.77 0.4572-1.089 1.489-1.675 2.228-1.675z"/>
   <path d="m120.1 78.27c-1.144 0-2.071 0.9143-2.071 2.042v28.97c0 1.128 0.9274 2.042 2.071 2.042s2.071-0.9144 2.071-2.042v-28.97c0-1.128-0.9274-2.042-2.071-2.042zm16.22 0c-4.361 0-7.91 3.2-7.91 7.134 0 1.128 0.9274 2.042 2.071 2.042s2.071-0.9144 2.071-2.042c0-1.683 1.691-3.05 3.767-3.05 2.076 0 3.764 1.367 3.764 3.05 0 1.986-0.712 2.991-1.537 4.154l-0.6291 0.9193-0.4561 0.7179c-4.479 7.042-8.701 14.04-9.347 17.65-4e-3 0.0175-7e-3 0.0351-0.0111 0.0528-3e-3 0.0202-0.01 0.0438-0.0131 0.0638-8e-3 0.0524-4e-3 0.1036-9e-3 0.1555-4e-3 0.0559-0.0172 0.1095-0.0172 0.1665 0 0.0157 4e-3 0.0303 5e-3 0.0459 2e-3 0.0763 0.0131 0.1498 0.0232 0.2244 8e-3 0.0589 0.0123 0.1183 0.0253 0.1755 0.0158 0.0692 0.0399 0.1347 0.0627 0.2014 0.021 0.0614 0.0392 0.1238 0.0658 0.1825 0.0258 0.0569 0.0592 0.1093 0.09 0.1635 0.0338 0.0596 0.0656 0.1199 0.1052 0.1755 0.0374 0.0526 0.0811 0.0996 0.1234 0.1486 0.0439 0.0509 0.0857 0.1031 0.1345 0.1496 0.0438 0.0417 0.0931 0.0769 0.1406 0.1147 0.0566 0.0452 0.1116 0.0915 0.173 0.1306 0.046 0.0292 0.0961 0.052 0.1446 0.0778 0.0714 0.0381 0.1423 0.076 0.2185 0.1057 0.0474 0.0184 0.0983 0.0298 0.1477 0.0449 0.0806 0.0247 0.1603 0.0499 0.2448 0.0649 0.0144 3e-3 0.027 9e-3 0.0415 0.011 0.0498 8e-3 0.0982 3e-3 0.1476 8e-3 0.0596 5e-3 0.1171 0.0179 0.178 0.0179h12.3c1.144 0 2.071-0.9144 2.071-2.042 0-1.128-0.9274-2.042-2.071-2.042h-9.452c1.862-4.247 6.317-11.25 7.987-13.88l0.4592-0.7239 0.5087-0.7408c0.9654-1.359 2.288-3.222 2.288-6.496 0-3.935-3.546-7.134-7.907-7.134zm19.94 0c-2.567 0-5 1.686-6.055 4.195-1.246 2.963-1.806 8.996-1.806 12.33 0 3.337 0.5603 9.37 1.806 12.33 1.055 2.51 3.488 4.196 6.055 4.196s5.001-1.686 6.056-4.196c1.246-2.962 1.806-8.995 1.806-12.33 0-3.337-0.5603-9.37-1.806-12.33-1.055-2.509-3.489-4.195-6.056-4.195zm0 4.084c0.7393 0 1.772 0.5873 2.23 1.675 0.8784 2.089 1.49 7.352 1.49 10.77 0 3.417-0.6114 8.68-1.49 10.77-0.4571 1.089-1.491 1.676-2.23 1.676s-1.772-0.5873-2.229-1.675c-0.8784-2.089-1.49-7.352-1.49-10.77 0-3.417 0.6114-8.68 1.49-10.77 0.4576-1.088 1.49-1.675 2.229-1.675z"/>
  </g>
 </g>
 <g fill="none">
  <path d="m-218.1 118.4a248.2 248.2 0 1 1 0.0206 0.0381z" stroke="#333" stroke-width="10px"/>
  <path d="m0 0z" display="none" stroke-width="0px"/>
 </g>
</svg>
