<?xml version="1.0" encoding="UTF-8"?>
<svg class="svg-content" enable-background="new" style="position:absolute" preserveAspectRatio="xMinYMin meet" version="1.1" viewBox="-100 -100 1200 1400" xml:space="preserve" 
    xmlns="http://www.w3.org/2000/svg">
    <g fill="#f00" transform="translate(-218.28305,0)">
        <polygon class="g" transform="matrix(.98252461 0 0 .98252461 -.292368 -.291231)" points="634.54639 515.98047 607.05811 515.98047 592.9585 508.09961 609.8374 500.21875 637.32568 500.21875 651.42529 508.09961" stroke-width="1.01778626" style="position:absolute"/>
        <g>
            <path class="f" d="m596.31356 487.04385 5.87404-33.30988-15.84609-10.21289c-0.6918 1.46899-1.20704 3.01954-1.4901 4.62861l-8.05881 45.70371h4.93853z" style="position:absolute"/>
            <path class="e" d="m592.12248 510.81443-5.87405 33.30988-19.44611 10.21288c-0.17367-1.46898-0.14201-3.01953 0.14105-4.6286l8.05881-45.70371h4.93852z" style="position:absolute"/>
            <path class="d" d="m614.48643 548.51689 5.33672 17.45132c-0.62463 0.0701-1.25311 0.11419-1.88446 0.11419h-37.50576c-5.71956 0-10.22919-2.93511-12.37559-7.37662l19.40006-10.18889z" style="position:absolute"/>
            <path class="c" d="m625.14452 564.528-5.63033-18.41082 6.22521-35.30275 14.58243-6.80956h4.93949l-8.05881 45.70372c-1.15715 6.56391-6.02276 12.20767-12.05799 14.81941z" style="position:absolute"/>
        </g>
        <g class="a" transform="matrix(.98252461 0 0 .98252461 -.292368 -.291231)" stroke-width="1.01778626">
            <path d="m643.51221 457.62988 11.69531-17.76172c-0.61035-0.0708-1.23438-0.11572-1.87695-0.11572h-38.17286c-5.82128 0-11.46582 2.98682-15.24414 7.50733l16.08887 10.37011z" fill="#f00" stroke-width="1.01778626"/>
        </g>
    </g>
</svg>
